<?xml version="1.0" encoding="UTF-8" standalone="no"?>
<svg
   width="13mm"
   height="13mm"
   viewBox="0 0 100 100"
   version="1.1"
   id="svg3"
   sodipodi:docname="L1.svg"
   xmlns:inkscape="http://www.inkscape.org/namespaces/inkscape"
   xmlns:sodipodi="http://sodipodi.sourceforge.net/DTD/sodipodi-0.dtd"
   xmlns="http://www.w3.org/2000/svg"
   xmlns:svg="http://www.w3.org/2000/svg">
  <defs
     id="defs3" />
  <sodipodi:namedview
     id="namedview3"
     pagecolor="#ffffff"
     bordercolor="#000000"
     borderopacity="0.25"
     inkscape:showpageshadow="2"
     inkscape:pageopacity="0.0"
     inkscape:pagecheckerboard="0"
     inkscape:deskcolor="#d1d1d1"
     inkscape:document-units="mm" />
  <path
     d="m 32.078393,44.618017 h 13.012354 v 1.751465 H 39.630298 V 60 H 37.538843 V 46.369482 h -5.46045 z m 16.690431,9.581543 q -2.29751,0 -3.183545,0.52544 -0.886036,0.525439 -0.886036,1.792676 0,1.009668 0.659375,1.607226 0.669678,0.587256 1.813282,0.587256 1.576318,0 2.52417,-1.112695 0.958154,-1.122998 0.958154,-2.97749 V 54.19956 Z m 3.781103,-0.783007 V 60 h -1.895703 v -1.751465 q -0.649072,1.050879 -1.617529,1.555713 -0.968457,0.494531 -2.369629,0.494531 -1.772071,0 -2.822949,-0.989062 -1.040577,-0.999365 -1.040577,-2.668408 0,-1.947217 1.298145,-2.93628 1.308447,-0.989062 3.894434,-0.989062 h 2.658105 v -0.18545 q 0,-1.308447 -0.86543,-2.019336 -0.855127,-0.721191 -2.41084,-0.721191 -0.989062,0 -1.926611,0.236963 -0.937549,0.236963 -1.802978,0.710889 v -1.751465 q 1.040576,-0.401807 2.019336,-0.597559 0.978759,-0.206055 1.906005,-0.206055 2.503565,0 3.739893,1.298145 1.236328,1.298145 1.236328,3.935645 z m 12.188136,0.824218 q 0,-2.091455 -0.86543,-3.276269 -0.855127,-1.195117 -2.359326,-1.195117 -1.504199,0 -2.369629,1.195117 -0.855127,1.184814 -0.855127,3.276269 0,2.091455 0.855127,3.286573 0.86543,1.184814 2.369629,1.184814 1.504199,0 2.359326,-1.184814 0.86543,-1.195118 0.86543,-3.286573 z m -6.449512,-4.028369 q 0.597559,-1.030273 1.504199,-1.524805 0.916944,-0.504834 2.18418,-0.504834 2.101758,0 3.410205,1.669043 1.31875,1.669043 1.31875,4.388965 0,2.719922 -1.31875,4.388965 -1.308447,1.669043 -3.410205,1.669043 -1.267236,0 -2.18418,-0.494531 -0.90664,-0.504834 -1.504199,-1.535107 V 60 H 56.382545 V 43.968945 h 1.906006 z"
     id="text1"
     style="font-size:21.1px;font-family:'DejaVu Sans';text-anchor:middle"
     aria-label="Tab" />
  <path
     d="m 86.5,22.271484 h 2.180664 V 25 H 86.5 Z m 0,-13.3095699 h 2.180664 V 15.998047 L 88.46582,19.833008 H 86.725586 L 86.5,15.998047 Z"
     id="text2"
     style="font-size:22px;font-family:'DejaVu Sans';text-anchor:end"
     aria-label="!" />
  <path
     d="m 65.898243,90.683008 v 3.311914 h 1.961719 q 0.986914,0 1.459179,-0.405664 0.478321,-0.411719 0.478321,-1.25332 0,-0.847657 -0.478321,-1.247266 -0.472265,-0.405664 -1.459179,-0.405664 z m 0,-3.717578 v 2.724609 h 1.810351 q 0.896094,0 1.332032,-0.333008 0.441992,-0.339062 0.441992,-1.029296 0,-0.68418 -0.441992,-1.023243 -0.435938,-0.339062 -1.332032,-0.339062 z m -1.223047,-1.005078 h 3.124219 q 1.398633,0 2.155468,0.58125 0.756836,0.58125 0.756836,1.652929 0,0.829493 -0.3875,1.319922 -0.3875,0.49043 -1.138281,0.611524 0.902149,0.19375 1.398633,0.811328 0.502539,0.611523 0.502539,1.531836 0,1.210937 -0.823437,1.870898 Q 69.440235,95 67.920509,95 h -3.245313 z m 11.086133,3.039453 q -0.896094,0 -1.416797,0.702344 -0.520703,0.696289 -0.520703,1.913281 0,1.216992 0.514648,1.919336 0.520703,0.696289 1.422852,0.696289 0.890039,0 1.410742,-0.702344 0.520703,-0.702344 0.520703,-1.913281 0,-1.204883 -0.520703,-1.907227 -0.520703,-0.708398 -1.410742,-0.708398 z m 0,-0.944531 q 1.453125,0 2.282617,0.944531 0.829492,0.944531 0.829492,2.615625 0,1.665039 -0.829492,2.615625 -0.829492,0.944531 -2.282617,0.944531 -1.45918,0 -2.288672,-0.944531 -0.823437,-0.950586 -0.823437,-2.615625 0,-1.671094 0.823437,-2.615625 0.829492,-0.944531 2.288672,-0.944531 z m 7.586523,0.944531 q -0.896094,0 -1.416797,0.702344 -0.520703,0.696289 -0.520703,1.913281 0,1.216992 0.514648,1.919336 0.520704,0.696289 1.422852,0.696289 0.890039,0 1.410742,-0.702344 0.520703,-0.702344 0.520703,-1.913281 0,-1.204883 -0.520703,-1.907227 -0.520703,-0.708398 -1.410742,-0.708398 z m 0,-0.944531 q 1.453125,0 2.282617,0.944531 0.829492,0.944531 0.829492,2.615625 0,1.665039 -0.829492,2.615625 -0.829492,0.944531 -2.282617,0.944531 -1.45918,0 -2.288672,-0.944531 -0.823437,-0.950586 -0.823437,-2.615625 0,-1.671094 0.823437,-2.615625 0.829492,-0.944531 2.288672,-0.944531 z m 6.060742,-1.761914 v 1.92539 h 2.294726 v 0.86582 h -2.294726 v 3.68125 q 0,0.829493 0.224023,1.065625 0.230078,0.236133 0.926367,0.236133 H 91.70332 V 95 h -1.144336 q -1.289648,0 -1.780078,-0.47832 -0.490429,-0.484375 -0.490429,-1.75586 v -3.68125 h -0.817383 v -0.86582 h 0.817383 v -1.92539 z"
     id="text3"
     style="font-size:12.4px;font-family:'DejaVu Sans';text-anchor:end"
     aria-label="Boot" />
</svg>
