<?xml version="1.0" encoding="UTF-8" standalone="no"?>
<svg
   width="13mm"
   height="13mm"
   viewBox="0 0 100 100"
   version="1.1"
   id="svg4"
   sodipodi:docname="L10.svg"
   xmlns:inkscape="http://www.inkscape.org/namespaces/inkscape"
   xmlns:sodipodi="http://sodipodi.sourceforge.net/DTD/sodipodi-0.dtd"
   xmlns="http://www.w3.org/2000/svg"
   xmlns:svg="http://www.w3.org/2000/svg">
  <defs
     id="defs4" />
  <sodipodi:namedview
     id="namedview4"
     pagecolor="#ffffff"
     bordercolor="#000000"
     borderopacity="0.25"
     inkscape:showpageshadow="2"
     inkscape:pageopacity="0.0"
     inkscape:pagecheckerboard="0"
     inkscape:deskcolor="#d1d1d1"
     inkscape:document-units="mm" />
  <path
     d="m 14.993164,17.383789 q -1.546875,0 -2.438476,0.827148 -0.88086,0.827149 -0.88086,2.277344 0,1.450196 0.88086,2.277344 0.891601,0.827148 2.438476,0.827148 1.546875,0 2.438477,-0.827148 0.891601,-0.837891 0.891601,-2.277344 0,-1.450195 -0.891601,-2.277344 -0.88086,-0.827148 -2.438477,-0.827148 z m -2.169922,-0.923828 q -1.396484,-0.34375 -2.180664,-1.299805 -0.7734374,-0.956054 -0.7734374,-2.331054 0,-1.922852 1.3642574,-3.0400395 1.375,-1.1171875 3.759766,-1.1171875 2.395508,0 3.759766,1.1171875 1.364257,1.1171875 1.364257,3.0400395 0,1.375 -0.784179,2.331054 -0.773438,0.956055 -2.15918,1.299805 1.568359,0.365234 2.438477,1.428711 0.880859,1.063476 0.880859,2.599609 0,2.331055 -1.428711,3.577149 -1.417969,1.246093 -4.071289,1.246093 -2.65332,0 -4.082031,-1.246093 -1.4179689,-1.246094 -1.4179689,-3.577149 0,-1.536133 0.8808589,-2.599609 0.88086,-1.063477 2.449219,-1.428711 z M 12.02832,13.033203 q 0,1.246094 0.773438,1.944336 0.78418,0.698242 2.191406,0.698242 1.396484,0 2.180664,-0.698242 0.794922,-0.698242 0.794922,-1.944336 0,-1.246094 -0.794922,-1.944336 -0.78418,-0.698242 -2.180664,-0.698242 -1.407226,0 -2.191406,0.698242 -0.773438,0.698242 -0.773438,1.944336 z"
     id="text1"
     style="font-size:22px;font-family:'DejaVu Sans'"
     aria-label="8" />
  <path
     d="m 89.668945,16.223633 v 1.912109 q -1.127929,0.848633 -2.094726,1.213867 -0.956055,0.365235 -1.998047,0.365235 -1.181641,0 -2.75,-0.633789 -0.118164,-0.04297 -0.171875,-0.06445 -0.07519,-0.03223 -0.236328,-0.08594 -1.665039,-0.666016 -2.674805,-0.666016 -0.945312,0 -1.869141,0.418946 -0.923828,0.408203 -1.976562,1.299804 v -1.912109 q 1.12793,-0.848633 2.083984,-1.213867 0.966797,-0.375977 2.008789,-0.375977 1.181641,0 2.760743,0.644532 0.107421,0.04297 0.161132,0.06445 0.08594,0.03223 0.236328,0.08594 1.66504,0.666016 2.674805,0.666016 0.923828,0 1.826172,-0.408203 0.913086,-0.408203 2.019531,-1.310547 z"
     id="text2"
     style="font-size:22px;font-family:'DejaVu Sans';text-anchor:end"
     aria-label="~" />
  <path
     d="m 8.9700195,83.77334 h 1.6317385 l 2.789746,4.17334 2.804785,-4.17334 h 1.631738 L 14.218652,89.164844 18.068652,95 H 16.436914 L 13.278711,90.225098 10.097949,95 H 8.4586914 l 4.0079096,-5.993066 z m 18.3777335,0.864746 v 1.60166 q -0.766992,-0.714355 -1.639257,-1.067773 -0.864746,-0.353418 -1.842285,-0.353418 -1.925,0 -2.947657,1.180566 -1.022656,1.173047 -1.022656,3.398828 0,2.218262 1.022656,3.398828 1.022657,1.173047 2.947657,1.173047 0.977539,0 1.842285,-0.353418 0.872265,-0.353418 1.639257,-1.067773 v 1.586621 q -0.79707,0.541406 -1.691894,0.812109 -0.887305,0.270703 -1.879883,0.270703 -2.549121,0 -4.015429,-1.556543 -1.466309,-1.564062 -1.466309,-4.263574 0,-2.707031 1.466309,-4.263574 1.466308,-1.564062 4.015429,-1.564062 1.007617,0 1.894922,0.270703 0.894824,0.263183 1.676855,0.79707 z m 9.076076,-0.496289 v 1.481348 q -0.864746,-0.413574 -1.631739,-0.616602 -0.766992,-0.203027 -1.481347,-0.203027 -1.240723,0 -1.917481,0.48125 -0.669238,0.48125 -0.669238,1.368555 0,0.744433 0.443652,1.127929 0.451172,0.375977 1.699414,0.609082 l 0.917383,0.187988 q 1.699414,0.32334 2.504004,1.142969 0.812109,0.81211 0.812109,2.180664 0,1.631738 -1.097851,2.473926 -1.090332,0.842187 -3.20332,0.842187 -0.797071,0 -1.699414,-0.180468 -0.894825,-0.180469 -1.857324,-0.533887 v -1.564063 q 0.924902,0.518848 1.812207,0.782032 0.887304,0.263183 1.744531,0.263183 1.300879,0 2.007715,-0.511328 0.706835,-0.511328 0.706835,-1.458789 0,-0.827148 -0.511328,-1.293359 -0.503808,-0.466211 -1.661816,-0.699317 l -0.924902,-0.180468 q -1.699414,-0.338379 -2.458887,-1.060254 -0.759473,-0.721875 -0.759473,-2.007715 0,-1.488867 1.045215,-2.346094 1.052734,-0.857226 2.89502,-0.857226 0.78955,0 1.609179,0.142871 0.819629,0.142871 1.676856,0.428613 z"
     id="text3"
     style="font-size:15.4px;font-family:'DejaVu Sans'"
     aria-label="XCS" />
  <path
     d="m 62.077735,95 -3.451171,-9.039648 h 1.277539 l 2.863867,7.610742 2.869921,-7.610742 h 1.271485 L 63.464259,95 Z m 8.379688,-7.834765 -1.658985,4.498632 h 3.324024 z m -0.690235,-1.204883 h 1.386524 L 74.598829,95 H 73.327345 L 72.503907,92.681055 H 68.429103 L 67.605665,95 h -1.289648 z m 6.151562,0 h 1.223047 v 8.010351 h 4.401758 V 95 H 75.91875 Z m 11.394923,1.265429 v 3.372461 h 3.372461 v 1.029297 H 87.313673 V 95 h -1.017187 v -3.372461 h -3.372461 v -1.029297 h 3.372461 v -3.372461 z"
     id="text4"
     style="font-size:12.4px;font-family:'DejaVu Sans';text-anchor:end"
     aria-label="VAL+" />
</svg>
