<?xml version="1.0" encoding="UTF-8" standalone="no"?>
<svg
   width="13mm"
   height="13mm"
   viewBox="0 0 100 100"
   version="1.1"
   id="svg3"
   sodipodi:docname="L11.svg"
   xmlns:inkscape="http://www.inkscape.org/namespaces/inkscape"
   xmlns:sodipodi="http://sodipodi.sourceforge.net/DTD/sodipodi-0.dtd"
   xmlns="http://www.w3.org/2000/svg"
   xmlns:svg="http://www.w3.org/2000/svg">
  <defs
     id="defs3" />
  <sodipodi:namedview
     id="namedview3"
     pagecolor="#ffffff"
     bordercolor="#000000"
     borderopacity="0.25"
     inkscape:showpageshadow="2"
     inkscape:pageopacity="0.0"
     inkscape:pagecheckerboard="0"
     inkscape:deskcolor="#d1d1d1"
     inkscape:document-units="mm" />
  <path
     d="M 10.416992,24.666992 V 22.69043 q 0.816406,0.386718 1.654297,0.59082 0.837891,0.204102 1.643555,0.204102 2.148437,0 3.276367,-1.439454 1.138672,-1.450195 1.299805,-4.393554 -0.623047,0.923828 -1.579102,1.417968 -0.956055,0.494141 -2.116211,0.494141 -2.40625,0 -3.813476,-1.450195 -1.3964848,-1.460938 -1.3964848,-3.985352 0,-2.470703 1.4609378,-3.963867 1.460937,-1.493164 3.888672,-1.493164 2.782226,0 4.243164,2.137695 1.471679,2.126953 1.471679,6.1875 0,3.791992 -1.804687,6.058594 -1.793946,2.255859 -4.833985,2.255859 -0.816406,0 -1.654296,-0.161132 -0.837891,-0.161133 -1.740235,-0.483399 z m 4.31836,-6.799805 q 1.460937,0 2.30957,-0.999023 0.859375,-0.999023 0.859375,-2.739258 0,-1.729492 -0.859375,-2.728515 -0.848633,-1.009766 -2.30957,-1.009766 -1.460938,0 -2.320313,1.009766 -0.848633,0.999023 -0.848633,2.728515 0,1.740235 0.848633,2.739258 0.859375,0.999023 2.320313,0.999023 z"
     id="text1"
     style="font-size:22px;font-family:'DejaVu Sans'"
     aria-label="9" />
  <path
     d="M 86.414062,8.9619141 92,27.041016 H 90.173828 L 84.587891,8.9619141 Z"
     id="text2"
     style="font-size:22px;font-family:'DejaVu Sans';text-anchor:end"
     aria-label="\" />
  <path
     d="m 12.112646,81.457862 v 11.848095 h 2.490039 q 3.15337,0 4.612696,-1.428711 1.469531,-1.428711 1.469531,-4.510644 0,-3.061524 -1.469531,-4.48003 -1.459326,-1.42871 -4.612696,-1.42871 z m -2.061425,-1.694043 h 4.235107 q 4.429004,0 6.500635,1.847119 2.07163,1.836914 2.07163,5.755664 0,3.93916 -2.081835,5.786279 Q 18.694922,95 14.286328,95 h -4.235107 z m 16.093408,0 h 9.633594 v 1.734863 h -7.572168 v 4.510644 h 7.25581 v 1.734864 h -7.25581 v 5.520947 h 7.755859 V 95 h -9.817285 z"
     id="text3"
     style="font-size:20.9px;font-family:'DejaVu Sans'"
     aria-label="DE" />
</svg>
