<?xml version="1.0" encoding="UTF-8" standalone="no"?>
<svg
   width="13mm"
   height="13mm"
   viewBox="0 0 100 100"
   version="1.1"
   id="svg3"
   sodipodi:docname="L12.svg"
   xmlns:inkscape="http://www.inkscape.org/namespaces/inkscape"
   xmlns:sodipodi="http://sodipodi.sourceforge.net/DTD/sodipodi-0.dtd"
   xmlns="http://www.w3.org/2000/svg"
   xmlns:svg="http://www.w3.org/2000/svg">
  <defs
     id="defs3" />
  <sodipodi:namedview
     id="namedview3"
     pagecolor="#ffffff"
     bordercolor="#000000"
     borderopacity="0.25"
     inkscape:showpageshadow="2"
     inkscape:pageopacity="0.0"
     inkscape:pagecheckerboard="0"
     inkscape:deskcolor="#d1d1d1"
     inkscape:document-units="mm" />
  <path
     d="m 14.993164,10.390625 q -1.675781,0 -2.524414,1.654297 -0.837891,1.643555 -0.837891,4.952148 0,3.297852 0.837891,4.952149 0.848633,1.643554 2.524414,1.643554 1.686523,0 2.524414,-1.643554 0.848633,-1.654297 0.848633,-4.952149 0,-3.308593 -0.848633,-4.952148 -0.837891,-1.654297 -2.524414,-1.654297 z m 0,-1.71875 q 2.696289,0 4.114258,2.137695 1.428711,2.126953 1.428711,6.1875 0,4.049805 -1.428711,6.1875 -1.417969,2.126953 -4.114258,2.126953 -2.696289,0 -4.125,-2.126953 -1.4179687,-2.137695 -1.4179687,-6.1875 0,-4.060547 1.4179687,-6.1875 1.428711,-2.137695 4.125,-2.137695 z"
     id="text1"
     style="font-size:22px;font-family:'DejaVu Sans'"
     aria-label="0" />
  <path
     d="M 89.207031,8.1884766 V 30.188477 H 87.380859 V 8.1884766 Z"
     id="text2"
     style="font-size:22px;font-family:'DejaVu Sans';text-anchor:end"
     aria-label="|" />
  <path
     d="m 10.051221,79.763819 h 2.061425 V 95 h -2.061425 z m 6.163867,0 h 2.775781 L 25.74663,92.509961 V 79.763819 h 2.000196 V 95 H 24.971045 L 18.215283,82.253858 V 95 h -2.000195 z"
     id="text3"
     style="font-size:20.9px;font-family:'DejaVu Sans'"
     aria-label="IN" />
</svg>
