<?xml version="1.0" encoding="UTF-8" standalone="no"?>
<svg
   width="13mm"
   height="13mm"
   viewBox="0 0 100 100"
   version="1.1"
   id="svg2"
   sodipodi:docname="L13.svg"
   xmlns:inkscape="http://www.inkscape.org/namespaces/inkscape"
   xmlns:sodipodi="http://sodipodi.sourceforge.net/DTD/sodipodi-0.dtd"
   xmlns="http://www.w3.org/2000/svg"
   xmlns:svg="http://www.w3.org/2000/svg">
  <defs
     id="defs2" />
  <sodipodi:namedview
     id="namedview2"
     pagecolor="#ffffff"
     bordercolor="#000000"
     borderopacity="0.25"
     inkscape:showpageshadow="2"
     inkscape:pageopacity="0.0"
     inkscape:pagecheckerboard="0"
     inkscape:deskcolor="#d1d1d1"
     inkscape:document-units="mm" />
  <path
     d="m 45.824707,48.561523 v 1.768067 q -0.84668,-0.788574 -1.80957,-1.178711 -0.95459,-0.390137 -2.033692,-0.390137 -2.125,0 -3.253906,1.303223 -1.128906,1.294922 -1.128906,3.751953 0,2.44873 1.128906,3.751953 1.128906,1.294922 3.253906,1.294922 1.079102,0 2.033692,-0.390137 0.96289,-0.390136 1.80957,-1.178711 v 1.751465 q -0.879883,0.597656 -1.867676,0.896485 -0.979492,0.298828 -2.075195,0.298828 -2.813965,0 -4.432617,-1.718262 -1.618653,-1.726563 -1.618653,-4.706543 0,-2.988281 1.618653,-4.706543 1.618652,-1.726563 4.432617,-1.726563 1.112305,0 2.091797,0.298829 0.987793,0.290527 1.851074,0.879882 z m 4.03418,-0.498046 v 2.639648 h 3.145996 v 1.187012 h -3.145996 v 5.046875 q 0,1.137207 0.307129,1.460937 0.315429,0.323731 1.270019,0.323731 h 1.568848 V 60 h -1.568848 q -1.768066,0 -2.44043,-0.655762 -0.672363,-0.664062 -0.672363,-2.407226 v -5.046875 h -1.120605 v -1.187012 h 1.120605 v -2.639648 z m 10.541992,4.067382 q -0.257324,-0.149414 -0.564453,-0.21582 -0.298828,-0.07471 -0.664063,-0.07471 -1.294922,0 -1.992187,0.84668 -0.688965,0.838379 -0.688965,2.415527 V 60 h -1.535645 v -9.296875 h 1.535645 v 1.444336 q 0.481445,-0.84668 1.253418,-1.253418 0.771973,-0.415039 1.875976,-0.415039 0.157715,0 0.348633,0.0249 0.190918,0.0166 0.42334,0.05811 z m 1.602051,-5.046875 h 1.527343 V 60 H 62.00293 Z"
     id="text1"
     style="font-size:17px;font-family:'DejaVu Sans';text-anchor:middle"
     aria-label="Ctrl" />
  <path
     d="m 56.24463,83.77334 h 2.263379 l 2.864941,7.639844 2.87998,-7.639844 h 2.263379 V 95 h -1.481347 v -9.858105 l -2.89502,7.7 h -1.526465 l -2.895019,-7.7 V 95 H 56.24463 Z m 17.843847,1.030176 q -1.654297,0 -2.631836,1.233203 -0.97002,1.233203 -0.97002,3.36123 0,2.120508 0.97002,3.353711 0.977539,1.233203 2.631836,1.233203 1.654297,0 2.616797,-1.233203 0.970019,-1.233203 0.970019,-3.353711 0,-2.128027 -0.970019,-3.36123 -0.9625,-1.233203 -2.616797,-1.233203 z m 0,-1.233203 q 2.361133,0 3.774804,1.586621 1.413672,1.579101 1.413672,4.241015 0,2.654395 -1.413672,4.241016 -1.413671,1.579101 -3.774804,1.579101 -2.368653,0 -3.789844,-1.579101 -1.413672,-1.579102 -1.413672,-4.241016 0,-2.661914 1.413672,-4.241015 1.421191,-1.586621 3.789844,-1.586621 z m 9.083593,1.451269 v 8.730176 h 1.834766 q 2.323535,0 3.398828,-1.052735 1.082812,-1.052734 1.082812,-3.323632 0,-2.25586 -1.082812,-3.301074 -1.075293,-1.052735 -3.398828,-1.052735 z M 81.653125,83.77334 h 3.120605 q 3.263477,0 4.789941,1.361035 1.526465,1.353516 1.526465,4.241016 0,2.902539 -1.533984,4.263574 Q 88.022168,95 84.77373,95 h -3.120605 z"
     id="text2"
     style="font-size:15.4px;font-family:'DejaVu Sans';text-anchor:end"
     aria-label="MOD" />
</svg>
