<?xml version="1.0" encoding="UTF-8" standalone="no"?>
<svg
   width="13mm"
   height="13mm"
   viewBox="0 0 100 100"
   version="1.1"
   id="svg2"
   sodipodi:docname="L14.svg"
   xmlns:inkscape="http://www.inkscape.org/namespaces/inkscape"
   xmlns:sodipodi="http://sodipodi.sourceforge.net/DTD/sodipodi-0.dtd"
   xmlns="http://www.w3.org/2000/svg"
   xmlns:svg="http://www.w3.org/2000/svg">
  <defs
     id="defs2" />
  <sodipodi:namedview
     id="namedview2"
     pagecolor="#ffffff"
     bordercolor="#000000"
     borderopacity="0.25"
     inkscape:showpageshadow="2"
     inkscape:pageopacity="0.0"
     inkscape:pagecheckerboard="0"
     inkscape:deskcolor="#d1d1d1"
     inkscape:document-units="mm" />
  <path
     d="m 89.668945,14.171875 -11.085937,3.942383 11.085937,3.920898 v 1.955078 L 75.897461,18.995117 v -1.783203 l 13.771484,-4.995117 z"
     id="text1"
     style="font-size:22px;font-family:'DejaVu Sans';text-anchor:end"
     aria-label="&lt;" />
  <path
     d="m 62.507618,85.960352 h 1.223047 v 3.705468 h 4.44414 v -3.705468 h 1.223047 V 95 h -1.223047 v -4.304883 h -4.44414 V 95 h -1.223047 z m 9.184961,0 h 1.229102 v 5.491601 q 0,1.453125 0.526757,2.094922 0.526758,0.635742 1.707422,0.635742 1.17461,0 1.701367,-0.635742 0.526758,-0.641797 0.526758,-2.094922 v -5.491601 h 1.229102 v 5.642968 q 0,1.767969 -0.87793,2.670118 -0.871875,0.902148 -2.579297,0.902148 -1.713476,0 -2.591406,-0.902148 -0.871875,-0.902149 -0.871875,-2.670118 z m 9.215235,0 h 5.715625 v 1.029297 h -4.492578 v 2.676171 h 4.304883 v 1.029297 h -4.304883 v 3.275586 h 4.601562 V 95 h -5.824609 z m 7.223241,5.146484 h 3.263477 v 0.992969 h -3.263477 z"
     id="text2"
     style="font-size:12.4px;font-family:'DejaVu Sans';text-anchor:end"
     aria-label="HUE-" />
</svg>
