<?xml version="1.0" encoding="UTF-8" standalone="no"?>
<svg
   width="13mm"
   height="13mm"
   viewBox="0 0 100 100"
   version="1.1"
   id="svg2"
   sodipodi:docname="L15.svg"
   xmlns:inkscape="http://www.inkscape.org/namespaces/inkscape"
   xmlns:sodipodi="http://sodipodi.sourceforge.net/DTD/sodipodi-0.dtd"
   xmlns="http://www.w3.org/2000/svg"
   xmlns:svg="http://www.w3.org/2000/svg">
  <defs
     id="defs2" />
  <sodipodi:namedview
     id="namedview2"
     pagecolor="#ffffff"
     bordercolor="#000000"
     borderopacity="0.25"
     inkscape:showpageshadow="2"
     inkscape:pageopacity="0.0"
     inkscape:pagecheckerboard="0"
     inkscape:deskcolor="#d1d1d1"
     inkscape:document-units="mm" />
  <path
     d="m 75.897461,14.171875 v -1.955078 l 13.771484,4.995117 v 1.783203 l -13.771484,4.995117 v -1.955078 l 11.064453,-3.920898 z"
     id="text1"
     style="font-size:22px;font-family:'DejaVu Sans';text-anchor:end"
     aria-label="&gt;" />
  <path
     d="m 72.104297,86.257032 v 1.192773 q -0.696289,-0.333008 -1.313867,-0.496484 -0.617578,-0.163477 -1.192773,-0.163477 -0.999023,0 -1.543945,0.3875 -0.538867,0.3875 -0.538867,1.101953 0,0.599414 0.357226,0.908203 0.363281,0.302735 1.368359,0.49043 l 0.738672,0.151367 q 1.36836,0.260352 2.016211,0.920313 0.653906,0.653906 0.653906,1.755859 0,1.313867 -0.883984,1.991992 -0.87793,0.678125 -2.579297,0.678125 -0.641797,0 -1.368359,-0.145313 -0.720508,-0.145312 -1.495508,-0.429882 v -1.259375 q 0.744727,0.417773 1.45918,0.629687 0.714453,0.211914 1.404687,0.211914 1.047461,0 1.616602,-0.411719 0.56914,-0.411718 0.56914,-1.174609 0,-0.666015 -0.411718,-1.041406 -0.405664,-0.375391 -1.338086,-0.563086 l -0.744727,-0.145312 q -1.368359,-0.272461 -1.979883,-0.853711 -0.611523,-0.58125 -0.611523,-1.616602 0,-1.198828 0.841602,-1.889062 0.847656,-0.690235 2.331054,-0.690235 0.635742,0 1.295703,0.115039 0.659961,0.115039 1.350195,0.345118 z m 5.703516,0.908203 -1.658985,4.498632 h 3.324024 z m -0.690235,-1.204883 h 1.386524 L 81.949219,95 H 80.677735 L 79.854297,92.681055 H 75.779493 L 74.956055,95 h -1.289648 z m 3.935548,0 h 7.64707 v 1.029297 H 85.491212 V 95 H 84.26211 v -8.010351 h -3.208984 z m 7.077929,5.146484 h 3.263477 v 0.992969 h -3.263477 z"
     id="text2"
     style="font-size:12.4px;font-family:'DejaVu Sans';text-anchor:end"
     aria-label="SAT-" />
</svg>
