<?xml version="1.0" encoding="UTF-8" standalone="no"?>
<svg
   width="13mm"
   height="13mm"
   viewBox="0 0 100 100"
   version="1.1"
   id="svg1"
   sodipodi:docname="L18.svg"
   xmlns:inkscape="http://www.inkscape.org/namespaces/inkscape"
   xmlns:sodipodi="http://sodipodi.sourceforge.net/DTD/sodipodi-0.dtd"
   xmlns="http://www.w3.org/2000/svg"
   xmlns:svg="http://www.w3.org/2000/svg">
  <defs
     id="defs1" />
  <sodipodi:namedview
     id="namedview1"
     pagecolor="#ffffff"
     bordercolor="#000000"
     borderopacity="0.25"
     inkscape:showpageshadow="2"
     inkscape:pageopacity="0.0"
     inkscape:pagecheckerboard="0"
     inkscape:deskcolor="#d1d1d1"
     inkscape:document-units="mm" />
  <path
     d="m 78.185547,19.231445 q 0,1.536133 0.762695,2.416992 0.762695,0.870118 2.094727,0.870118 1.321289,0 2.073242,-0.88086 0.762695,-0.880859 0.762695,-2.40625 0,-1.503906 -0.773437,-2.384765 -0.773438,-0.891602 -2.083985,-0.891602 -1.299804,0 -2.073242,0.880859 -0.762695,0.88086 -0.762695,2.395508 z m 5.854492,3.211914 q -0.644531,0.827149 -1.482422,1.22461 -0.827148,0.386718 -1.933594,0.386718 -1.847656,0 -3.007812,-1.332031 -1.149414,-1.342773 -1.149414,-3.491211 0,-2.148437 1.160156,-3.491211 1.160156,-1.342773 2.99707,-1.342773 1.106446,0 1.944336,0.408203 0.837891,0.397461 1.47168,1.213867 v -1.407226 h 1.536133 v 7.90625 q 1.568359,-0.236328 2.449219,-1.428711 0.891601,-1.203125 0.891601,-3.104492 0,-1.149415 -0.34375,-2.15918 -0.333008,-1.009766 -1.020508,-1.869141 -1.117187,-1.407226 -2.728515,-2.148437 -1.600586,-0.751953 -3.491211,-0.751953 -1.321289,0 -2.535156,0.354492 -1.213868,0.34375 -2.245118,1.03125 -1.686523,1.095703 -2.642578,2.878906 -0.945312,1.772461 -0.945312,3.845703 0,1.708008 0.612304,3.201172 0.623047,1.493164 1.793946,2.631836 1.127929,1.117187 2.610351,1.697266 1.482422,0.59082 3.168946,0.59082 1.385742,0 2.717773,-0.472656 1.342773,-0.461914 2.459961,-1.332032 l 0.966797,1.192383 q -1.342774,1.041992 -2.932617,1.589844 -1.579102,0.558594 -3.211914,0.558594 -1.987305,0 -3.749024,-0.708985 -1.761719,-0.698242 -3.136719,-2.041015 -1.375,-1.342774 -2.094726,-3.104492 -0.719727,-1.772461 -0.719727,-3.802735 0,-1.955078 0.730469,-3.727539 0.730469,-1.772461 2.083984,-3.115234 1.385743,-1.364258 3.201172,-2.083985 1.81543,-0.7304684 3.845703,-0.7304684 2.277344,0 4.22168,0.9345704 1.955078,0.93457 3.276367,2.65332 0.805664,1.052735 1.22461,2.288086 0.429687,1.235352 0.429687,2.556641 0,2.825195 -1.708008,4.458008 -1.708007,1.632812 -4.71582,1.697265 z"
     id="text1"
     style="font-size:22px;font-family:'DejaVu Sans';text-anchor:end"
     aria-label="@" />
</svg>
