<?xml version="1.0" encoding="UTF-8" standalone="no"?>
<svg
   width="13mm"
   height="13mm"
   viewBox="0 0 100 100"
   version="1.1"
   id="svg4"
   sodipodi:docname="L19.svg"
   xmlns:inkscape="http://www.inkscape.org/namespaces/inkscape"
   xmlns:sodipodi="http://sodipodi.sourceforge.net/DTD/sodipodi-0.dtd"
   xmlns="http://www.w3.org/2000/svg"
   xmlns:svg="http://www.w3.org/2000/svg">
  <defs
     id="defs4" />
  <sodipodi:namedview
     id="namedview4"
     pagecolor="#ffffff"
     bordercolor="#000000"
     borderopacity="0.25"
     inkscape:showpageshadow="2"
     inkscape:pageopacity="0.0"
     inkscape:pagecheckerboard="0"
     inkscape:deskcolor="#d1d1d1"
     inkscape:document-units="mm" />
  <path
     d="m 42.927173,46.668261 -2.82295,7.654932 h 5.656202 z m -1.174512,-2.050244 h 2.359326 L 49.974243,60 h -2.163574 l -1.401172,-3.945947 h -6.93374 L 38.074585,60 H 35.880102 Z M 52.137817,43.968945 H 54.03352 V 60 h -1.895703 z m 7.737354,1.215723 v 3.276269 h 3.904736 v 1.473291 h -3.904736 v 6.264063 q 0,1.411475 0.381201,1.813281 0.391504,0.401807 1.576318,0.401807 h 1.947217 V 60 H 61.83269 q -2.194482,0 -3.029004,-0.813916 -0.834521,-0.824219 -0.834521,-2.987793 v -6.264063 h -1.390869 v -1.473291 h 1.390869 v -3.276269 z"
     id="text1"
     style="font-size:21.1px;font-family:'DejaVu Sans';text-anchor:middle"
     aria-label="Alt" />
  <path
     d="m 17.166308,23.39834 v -3.015332 h -2.481445 v -1.248242 h 3.985352 v 4.820019 q -0.879786,0.624121 -1.940039,0.947461 -1.060254,0.31582 -2.263379,0.31582 -2.631836,0 -4.120703,-1.533984 -1.4813479,-1.541504 -1.4813479,-4.286133 0,-2.752148 1.4813479,-4.286132 1.488867,-1.541504 4.120703,-1.541504 1.097851,0 2.08291,0.270703 0.992578,0.270703 1.827246,0.79707 v 1.616699 q -0.842188,-0.714355 -1.789649,-1.075293 -0.94746,-0.360937 -1.992675,-0.360937 -2.060352,0 -3.098047,1.150488 -1.030176,1.150488 -1.030176,3.428906 0,2.270899 1.030176,3.421387 1.037695,1.150488 3.098047,1.150488 0.80459,0 1.43623,-0.135351 0.631641,-0.142871 1.135449,-0.436133 z m 4.105664,-9.625 h 1.526465 v 6.820215 q 0,1.804687 0.654199,2.601758 0.654199,0.78955 2.120508,0.78955 1.458789,0 2.112988,-0.78955 0.654199,-0.797071 0.654199,-2.601758 V 13.77334 h 1.526465 v 7.008203 q 0,2.195703 -1.090332,3.316113 -1.082812,1.12041 -3.20332,1.12041 -2.128027,0 -3.218359,-1.12041 -1.082813,-1.12041 -1.082813,-3.316113 z m 11.444726,0 h 1.518946 V 25 h -1.518946 z"
     id="text2"
     style="font-size:15.4px;font-family:'DejaVu Sans'"
     aria-label="GUI" />
  <path
     d="m 73.419239,23.39834 v -3.015332 h -2.481446 v -1.248242 h 3.985352 v 4.820019 q -0.879785,0.624121 -1.940039,0.947461 -1.060254,0.31582 -2.263379,0.31582 -2.631836,0 -4.120703,-1.533984 -1.481348,-1.541504 -1.481348,-4.286133 0,-2.752148 1.481348,-4.286132 1.488867,-1.541504 4.120703,-1.541504 1.097852,0 2.08291,0.270703 0.992578,0.270703 1.827246,0.79707 v 1.616699 q -0.842187,-0.714355 -1.789648,-1.075293 -0.947461,-0.360937 -1.992676,-0.360937 -2.060351,0 -3.098047,1.150488 -1.030175,1.150488 -1.030175,3.428906 0,2.270899 1.030175,3.421387 1.037696,1.150488 3.098047,1.150488 0.80459,0 1.436231,-0.135351 0.63164,-0.142871 1.135449,-0.436133 z m 4.105663,-9.625 h 1.526465 v 6.820215 q 0,1.804687 0.654199,2.601758 0.6542,0.78955 2.120508,0.78955 1.458789,0 2.112988,-0.78955 0.6542,-0.797071 0.6542,-2.601758 V 13.77334 h 1.526464 v 7.008203 q 0,2.195703 -1.090332,3.316113 -1.082812,1.12041 -3.20332,1.12041 -2.128027,0 -3.218359,-1.12041 -1.082813,-1.12041 -1.082813,-3.316113 z m 11.444727,0 h 1.518945 V 25 h -1.518945 z"
     id="text3"
     style="font-size:15.4px;font-family:'DejaVu Sans';text-anchor:end"
     aria-label="GUI" />
  <path
     d="m 73.419239,93.39834 v -3.015332 h -2.481446 v -1.248242 h 3.985352 v 4.820019 q -0.879785,0.624121 -1.940039,0.947461 -1.060254,0.31582 -2.263379,0.31582 -2.631836,0 -4.120703,-1.533984 -1.481348,-1.541504 -1.481348,-4.286133 0,-2.752148 1.481348,-4.286132 1.488867,-1.541504 4.120703,-1.541504 1.097852,0 2.08291,0.270703 0.992578,0.270703 1.827246,0.79707 v 1.616699 q -0.842187,-0.714355 -1.789648,-1.075293 -0.947461,-0.360937 -1.992676,-0.360937 -2.060351,0 -3.098047,1.150488 -1.030175,1.150488 -1.030175,3.428906 0,2.270899 1.030175,3.421387 1.037696,1.150488 3.098047,1.150488 0.80459,0 1.436231,-0.135351 0.63164,-0.142871 1.135449,-0.436133 z m 4.105663,-9.625 h 1.526465 v 6.820215 q 0,1.804687 0.654199,2.601758 0.6542,0.78955 2.120508,0.78955 1.458789,0 2.112988,-0.78955 0.6542,-0.797071 0.6542,-2.601758 V 83.77334 h 1.526464 v 7.008203 q 0,2.195703 -1.090332,3.316113 -1.082812,1.12041 -3.20332,1.12041 -2.128027,0 -3.218359,-1.12041 -1.082813,-1.12041 -1.082813,-3.316113 z m 11.444727,0 h 1.518945 V 95 h -1.518945 z"
     id="text4"
     style="font-size:15.4px;font-family:'DejaVu Sans';text-anchor:end"
     aria-label="GUI" />
</svg>
