<?xml version="1.0" encoding="UTF-8" standalone="no"?>
<svg
   width="13mm"
   height="13mm"
   viewBox="0 0 100 100"
   version="1.1"
   id="svg3"
   sodipodi:docname="L2.svg"
   xmlns:inkscape="http://www.inkscape.org/namespaces/inkscape"
   xmlns:sodipodi="http://sodipodi.sourceforge.net/DTD/sodipodi-0.dtd"
   xmlns="http://www.w3.org/2000/svg"
   xmlns:svg="http://www.w3.org/2000/svg">
  <defs
     id="defs3" />
  <sodipodi:namedview
     id="namedview3"
     pagecolor="#ffffff"
     bordercolor="#000000"
     borderopacity="0.25"
     inkscape:showpageshadow="2"
     inkscape:pageopacity="0.0"
     inkscape:pagecheckerboard="0"
     inkscape:deskcolor="#d1d1d1"
     inkscape:document-units="mm" />
  <path
     d="m 10.728516,23.173828 h 3.544922 V 10.938477 l -3.856446,0.773437 V 9.7353516 l 3.834961,-0.7734375 h 2.169922 V 23.173828 h 3.544922 V 25 h -9.238281 z"
     id="text1"
     style="font-size:22px;font-family:'DejaVu Sans'"
     aria-label="1" />
  <path
     d="M 85.823242,8.9619141 V 14.923828 H 83.99707 V 8.9619141 Z m 4.060547,0 V 14.923828 H 88.057617 V 8.9619141 Z"
     id="text2"
     style="font-size:22px;font-family:'DejaVu Sans';text-anchor:end"
     aria-label="&quot;" />
  <path
     d="m 8.9700195,83.77334 h 1.6317385 l 2.789746,4.17334 2.804785,-4.17334 h 1.631738 L 14.218652,89.164844 18.068652,95 H 16.436914 L 13.278711,90.225098 10.097949,95 H 8.4586914 l 4.0079096,-5.993066 z m 9.5648435,6.391602 h 4.053028 v 1.233203 h -4.053028 z m 9.700195,-5.391504 q -1.173046,0 -1.767089,1.158008 -0.586524,1.150488 -0.586524,3.466503 0,2.308496 0.586524,3.466504 0.594043,1.150488 1.767089,1.150488 1.180567,0 1.76709,-1.150488 0.594043,-1.158008 0.594043,-3.466504 0,-2.316015 -0.594043,-3.466503 -0.586523,-1.158008 -1.76709,-1.158008 z m 0,-1.203125 q 1.887403,0 2.879981,1.496386 1.000098,1.488868 1.000098,4.33125 0,2.834864 -1.000098,4.33125 -0.992578,1.488867 -2.879981,1.488867 -1.887402,0 -2.887499,-1.488867 -0.992579,-1.496386 -0.992579,-4.33125 0,-2.842382 0.992579,-4.33125 1.000097,-1.496386 2.887499,-1.496386 z"
     id="text3"
     style="font-size:15.4px;font-family:'DejaVu Sans'"
     aria-label="X-0" />
</svg>
