<?xml version="1.0" encoding="UTF-8" standalone="no"?>
<svg
   width="13mm"
   height="13mm"
   viewBox="0 0 100 100"
   version="1.1"
   id="svg2"
   sodipodi:docname="L20.svg"
   xmlns:inkscape="http://www.inkscape.org/namespaces/inkscape"
   xmlns:sodipodi="http://sodipodi.sourceforge.net/DTD/sodipodi-0.dtd"
   xmlns="http://www.w3.org/2000/svg"
   xmlns:svg="http://www.w3.org/2000/svg">
  <defs
     id="defs2" />
  <sodipodi:namedview
     id="namedview2"
     pagecolor="#ffffff"
     bordercolor="#000000"
     borderopacity="0.25"
     inkscape:showpageshadow="2"
     inkscape:pageopacity="0.0"
     inkscape:pagecheckerboard="0"
     inkscape:deskcolor="#d1d1d1"
     inkscape:document-units="mm" />
  <path
     d="m 30.381104,47.606934 h 1.676757 v 10.981933 h 6.034668 V 60 h -7.711425 z m 5.412109,0 H 46.2771 v 1.411132 H 41.877686 V 60 H 40.192627 V 49.018066 h -4.399414 z m 12.54248,10.981933 h 2.739258 v -9.45459 l -2.97998,0.597657 V 48.20459 l 2.963379,-0.597656 h 1.676757 v 10.981933 h 2.739258 V 60 H 48.335693 Z M 68.191162,55.376465 H 60.19751 l 1.934082,1.934082 -0.996094,0.996094 -3.262207,-3.262207 v -0.747071 l 3.262207,-3.262207 0.996094,0.996094 -1.934082,1.934082 h 6.582519 v -4.615234 h 1.411133 z"
     id="text1"
     style="font-size:17px;font-family:'DejaVu Sans';text-anchor:middle"
     aria-label="LT1↵" />
  <path
     d="m 58.304981,13.77334 h 2.263379 l 2.864941,7.639844 2.879981,-7.639844 h 2.263379 V 25 h -1.481348 v -9.858105 l -2.895019,7.7 h -1.526465 l -2.89502,-7.7 V 25 h -1.473828 z m 17.843847,1.030176 q -1.654297,0 -2.631836,1.233203 -0.970019,1.233203 -0.970019,3.36123 0,2.120508 0.970019,3.353711 0.977539,1.233203 2.631836,1.233203 1.654297,0 2.616797,-1.233203 0.97002,-1.233203 0.97002,-3.353711 0,-2.128027 -0.97002,-3.36123 -0.9625,-1.233203 -2.616797,-1.233203 z m 0,-1.233203 q 2.361133,0 3.774805,1.586621 1.413672,1.579101 1.413672,4.241015 0,2.654395 -1.413672,4.241016 -1.413672,1.579101 -3.774805,1.579101 -2.368652,0 -3.789843,-1.579101 -1.413672,-1.579102 -1.413672,-4.241016 0,-2.661914 1.413672,-4.241015 1.421191,-1.586621 3.789843,-1.586621 z m 12.301953,5.376464 q 1.090332,0.233106 1.699414,0.97002 0.616601,0.736914 0.616601,1.819727 0,1.661816 -1.142968,2.571679 -1.142969,0.909863 -3.248438,0.909863 -0.706836,0 -1.458789,-0.142871 -0.744433,-0.135351 -1.541504,-0.413574 v -1.466308 q 0.631641,0.368457 1.383594,0.556445 0.751953,0.187988 1.571582,0.187988 1.428711,0 2.173145,-0.563965 0.751953,-0.563965 0.751953,-1.639257 0,-0.992579 -0.699317,-1.549024 -0.691797,-0.563965 -1.932519,-0.563965 h -1.308399 v -1.248242 h 1.368555 q 1.12041,0 1.714453,-0.443652 0.594043,-0.451172 0.594043,-1.29336 0,-0.864746 -0.616601,-1.323437 -0.609083,-0.466211 -1.752051,-0.466211 -0.624121,0 -1.338477,0.135352 -0.714355,0.135351 -1.571582,0.421093 v -1.353515 q 0.864746,-0.240625 1.616699,-0.360938 0.759473,-0.120312 1.428711,-0.120312 1.729492,0 2.73711,0.789551 1.007617,0.782031 1.007617,2.120507 0,0.932422 -0.533887,1.579102 -0.533887,0.63916 -1.518945,0.887304 z"
     id="text2"
     style="font-size:15.4px;font-family:'DejaVu Sans';text-anchor:end"
     aria-label="MO3" />
</svg>
