<?xml version="1.0" encoding="UTF-8" standalone="no"?>
<svg
   width="13mm"
   height="13mm"
   viewBox="0 0 100 100"
   version="1.1"
   id="svg4"
   sodipodi:docname="L21.svg"
   xmlns:inkscape="http://www.inkscape.org/namespaces/inkscape"
   xmlns:sodipodi="http://sodipodi.sourceforge.net/DTD/sodipodi-0.dtd"
   xmlns="http://www.w3.org/2000/svg"
   xmlns:svg="http://www.w3.org/2000/svg">
  <defs
     id="defs4" />
  <sodipodi:namedview
     id="namedview4"
     pagecolor="#ffffff"
     bordercolor="#000000"
     borderopacity="0.25"
     inkscape:showpageshadow="2"
     inkscape:pageopacity="0.0"
     inkscape:pagecheckerboard="0"
     inkscape:deskcolor="#d1d1d1"
     inkscape:document-units="mm" />
  <path
     d="m 32.107666,47.606934 h 1.676758 v 10.981933 h 6.034668 V 60 h -7.711426 z m 5.412109,0 h 10.483887 v 1.411132 H 43.604248 V 60 H 41.919189 V 49.018066 h -4.399414 z m 16.858887,1.460937 -4.233398,6.615723 h 4.233398 z m -0.439941,-1.460937 h 2.108398 v 8.07666 h 1.768067 v 1.394531 H 56.047119 V 60 h -1.668457 v -2.921875 h -5.594726 v -1.618652 z m 7.4375,14.850097 h 5.578125 v -4.183594 h 1.394531 v 5.594727 h -8.367188 v -5.594727 h 1.394532 z"
     id="text1"
     style="font-size:17px;font-family:'DejaVu Sans';text-anchor:middle"
     aria-label="LT4␣" />
  <path
     d="m 16.241406,14.141797 v 1.481348 q -0.864746,-0.413574 -1.631738,-0.616602 -0.766992,-0.203027 -1.481348,-0.203027 -1.240722,0 -1.91748,0.48125 -0.669239,0.48125 -0.669239,1.368555 0,0.744433 0.443653,1.127929 0.451172,0.375977 1.699414,0.609082 l 0.917383,0.187988 q 1.699414,0.32334 2.504003,1.142969 0.81211,0.81211 0.81211,2.180664 0,1.631738 -1.097852,2.473926 -1.090332,0.842187 -3.20332,0.842187 -0.79707,0 -1.699414,-0.180468 -0.894824,-0.180469 -1.8573241,-0.533887 v -1.564063 q 0.9249023,0.518848 1.8122071,0.782032 0.887305,0.263183 1.744531,0.263183 1.300879,0 2.007715,-0.511328 0.706836,-0.511328 0.706836,-1.458789 0,-0.827148 -0.511328,-1.293359 -0.503809,-0.466211 -1.661817,-0.699317 L 12.233496,19.841602 Q 10.534082,19.503223 9.7746093,18.781348 9.0151367,18.059473 9.0151367,16.773633 q 0,-1.488867 1.0452153,-2.346094 1.052734,-0.857226 2.895019,-0.857226 0.789551,0 1.60918,0.142871 0.819629,0.142871 1.676855,0.428613 z m 4.323731,9.594922 V 28.20332 H 19.174023 V 16.578125 h 1.391114 v 1.27832 q 0.436132,-0.751953 1.097851,-1.11289 0.669238,-0.368457 1.594141,-0.368457 1.533984,0 2.488965,1.218164 0.9625,1.218164 0.9625,3.20332 0,1.985156 -0.9625,3.20332 -0.954981,1.218164 -2.488965,1.218164 -0.924903,0 -1.594141,-0.360937 -0.661719,-0.368457 -1.097851,-1.12041 z m 4.707226,-2.940137 q 0,-1.526465 -0.631641,-2.391211 -0.624121,-0.872265 -1.721972,-0.872265 -1.097852,0 -1.729492,0.872265 -0.624121,0.864746 -0.624121,2.391211 0,1.526465 0.624121,2.398731 0.63164,0.864746 1.729492,0.864746 1.097851,0 1.721972,-0.864746 0.631641,-0.872266 0.631641,-2.398731 z m 9.79043,-3.895117 v 1.293359 q -0.586524,-0.323339 -1.180567,-0.48125 -0.586523,-0.165429 -1.188086,-0.165429 -1.345996,0 -2.090429,0.857226 -0.744434,0.849707 -0.744434,2.391211 0,1.541504 0.744434,2.398731 0.744433,0.849707 2.090429,0.849707 0.601563,0 1.188086,-0.157911 0.594043,-0.165429 1.180567,-0.488769 v 1.27832 q -0.579004,0.270703 -1.203125,0.406055 -0.616602,0.135351 -1.315918,0.135351 -1.902441,0 -3.022852,-1.195605 -1.12041,-1.195605 -1.12041,-3.225879 0,-2.060351 1.12793,-3.240918 1.135449,-1.180566 3.105566,-1.180566 0.63916,0 1.248242,0.135351 0.609082,0.127832 1.180567,0.391016 z"
     id="text2"
     style="font-size:15.4px;font-family:'DejaVu Sans'"
     aria-label="Spc" />
  <path
     d="m 72.223633,14.141797 v 1.481348 q -0.864746,-0.413574 -1.631738,-0.616602 -0.766992,-0.203027 -1.481348,-0.203027 -1.240722,0 -1.91748,0.48125 -0.669238,0.48125 -0.669238,1.368555 0,0.744433 0.443652,1.127929 0.451172,0.375977 1.699414,0.609082 l 0.917383,0.187988 q 1.699414,0.32334 2.504004,1.142969 0.812109,0.81211 0.812109,2.180664 0,1.631738 -1.097851,2.473926 -1.090332,0.842187 -3.203321,0.842187 -0.79707,0 -1.699414,-0.180468 -0.894824,-0.180469 -1.857324,-0.533887 v -1.564063 q 0.924902,0.518848 1.812207,0.782032 0.887305,0.263183 1.744531,0.263183 1.300879,0 2.007715,-0.511328 0.706836,-0.511328 0.706836,-1.458789 0,-0.827148 -0.511328,-1.293359 -0.503809,-0.466211 -1.661816,-0.699317 l -0.924903,-0.180468 q -1.699414,-0.338379 -2.458886,-1.060254 -0.759473,-0.721875 -0.759473,-2.007715 0,-1.488867 1.045215,-2.346094 1.052734,-0.857226 2.895019,-0.857226 0.789551,0 1.60918,0.142871 0.819629,0.142871 1.676855,0.428613 z m 4.323731,9.594922 V 28.20332 H 75.156251 V 16.578125 h 1.391113 v 1.27832 q 0.436133,-0.751953 1.097851,-1.11289 0.669239,-0.368457 1.594141,-0.368457 1.533984,0 2.488965,1.218164 0.9625,1.218164 0.9625,3.20332 0,1.985156 -0.9625,3.20332 -0.954981,1.218164 -2.488965,1.218164 -0.924902,0 -1.594141,-0.360937 -0.661718,-0.368457 -1.097851,-1.12041 z m 4.707226,-2.940137 q 0,-1.526465 -0.63164,-2.391211 -0.624121,-0.872265 -1.721973,-0.872265 -1.097851,0 -1.729492,0.872265 -0.624121,0.864746 -0.624121,2.391211 0,1.526465 0.624121,2.398731 0.631641,0.864746 1.729492,0.864746 1.097852,0 1.721973,-0.864746 0.63164,-0.872266 0.63164,-2.398731 z m 9.79043,-3.895117 v 1.293359 q -0.586523,-0.323339 -1.180566,-0.48125 -0.586524,-0.165429 -1.188086,-0.165429 -1.345996,0 -2.09043,0.857226 -0.744433,0.849707 -0.744433,2.391211 0,1.541504 0.744433,2.398731 0.744434,0.849707 2.09043,0.849707 0.601562,0 1.188086,-0.157911 0.594043,-0.165429 1.180566,-0.488769 v 1.27832 q -0.579004,0.270703 -1.203125,0.406055 -0.616601,0.135351 -1.315918,0.135351 -1.902441,0 -3.022851,-1.195605 -1.12041,-1.195605 -1.12041,-3.225879 0,-2.060351 1.127929,-3.240918 1.135449,-1.180566 3.105567,-1.180566 0.63916,0 1.248242,0.135351 0.609082,0.127832 1.180566,0.391016 z"
     id="text3"
     style="font-size:15.4px;font-family:'DejaVu Sans';text-anchor:end"
     aria-label="Spc" />
  <path
     d="m 72.223633,84.141797 v 1.481348 q -0.864746,-0.413574 -1.631738,-0.616602 -0.766992,-0.203027 -1.481348,-0.203027 -1.240722,0 -1.91748,0.48125 -0.669238,0.48125 -0.669238,1.368555 0,0.744433 0.443652,1.127929 0.451172,0.375977 1.699414,0.609082 l 0.917383,0.187988 q 1.699414,0.32334 2.504004,1.142969 0.812109,0.81211 0.812109,2.180664 0,1.631738 -1.097851,2.473926 -1.090332,0.842187 -3.203321,0.842187 -0.79707,0 -1.699414,-0.180468 -0.894824,-0.180469 -1.857324,-0.533887 v -1.564063 q 0.924902,0.518848 1.812207,0.782032 0.887305,0.263183 1.744531,0.263183 1.300879,0 2.007715,-0.511328 0.706836,-0.511328 0.706836,-1.458789 0,-0.827148 -0.511328,-1.293359 -0.503809,-0.466211 -1.661816,-0.699317 l -0.924903,-0.180468 q -1.699414,-0.338379 -2.458886,-1.060254 -0.759473,-0.721875 -0.759473,-2.007715 0,-1.488867 1.045215,-2.346094 1.052734,-0.857226 2.895019,-0.857226 0.789551,0 1.60918,0.142871 0.819629,0.142871 1.676855,0.428613 z m 4.323731,9.594922 V 98.20332 H 75.156251 V 86.578125 h 1.391113 v 1.27832 q 0.436133,-0.751953 1.097851,-1.11289 0.669239,-0.368457 1.594141,-0.368457 1.533984,0 2.488965,1.218164 0.9625,1.218164 0.9625,3.20332 0,1.985156 -0.9625,3.20332 -0.954981,1.218164 -2.488965,1.218164 -0.924902,0 -1.594141,-0.360937 -0.661718,-0.368457 -1.097851,-1.12041 z m 4.707226,-2.940137 q 0,-1.526465 -0.63164,-2.391211 -0.624121,-0.872265 -1.721973,-0.872265 -1.097851,0 -1.729492,0.872265 -0.624121,0.864746 -0.624121,2.391211 0,1.526465 0.624121,2.398731 0.631641,0.864746 1.729492,0.864746 1.097852,0 1.721973,-0.864746 0.63164,-0.872266 0.63164,-2.398731 z m 9.79043,-3.895117 v 1.293359 q -0.586523,-0.323339 -1.180566,-0.48125 -0.586524,-0.165429 -1.188086,-0.165429 -1.345996,0 -2.09043,0.857226 -0.744433,0.849707 -0.744433,2.391211 0,1.541504 0.744433,2.398731 0.744434,0.849707 2.09043,0.849707 0.601562,0 1.188086,-0.157911 0.594043,-0.165429 1.180566,-0.488769 v 1.27832 q -0.579004,0.270703 -1.203125,0.406055 -0.616601,0.135351 -1.315918,0.135351 -1.902441,0 -3.022851,-1.195605 -1.12041,-1.195605 -1.12041,-3.225879 0,-2.060351 1.127929,-3.240918 1.135449,-1.180566 3.105567,-1.180566 0.63916,0 1.248242,0.135351 0.609082,0.127832 1.180566,0.391016 z"
     id="text4"
     style="font-size:15.4px;font-family:'DejaVu Sans';text-anchor:end"
     aria-label="Spc" />
</svg>
