<?xml version="1.0" encoding="UTF-8" standalone="no"?>
<svg
   width="13mm"
   height="13mm"
   viewBox="0 0 100 100"
   version="1.1"
   id="svg3"
   sodipodi:docname="L3.svg"
   xmlns:inkscape="http://www.inkscape.org/namespaces/inkscape"
   xmlns:sodipodi="http://sodipodi.sourceforge.net/DTD/sodipodi-0.dtd"
   xmlns="http://www.w3.org/2000/svg"
   xmlns:svg="http://www.w3.org/2000/svg">
  <defs
     id="defs3" />
  <sodipodi:namedview
     id="namedview3"
     pagecolor="#ffffff"
     bordercolor="#000000"
     borderopacity="0.25"
     inkscape:showpageshadow="2"
     inkscape:pageopacity="0.0"
     inkscape:pagecheckerboard="0"
     inkscape:deskcolor="#d1d1d1"
     inkscape:document-units="mm" />
  <path
     d="m 12.22168,23.173828 h 7.573242 V 25 H 9.6113281 v -1.826172 q 1.2353519,-1.27832 3.3623049,-3.426758 2.137695,-2.159179 2.685547,-2.782226 1.041992,-1.170899 1.450195,-1.976563 0.418945,-0.816406 0.418945,-1.600586 0,-1.27832 -0.902343,-2.083984 -0.891602,-0.805664 -2.331055,-0.805664 -1.020508,0 -2.15918,0.354492 -1.127929,0.354492 -2.416992,1.074219 V 9.7353516 q 1.310547,-0.5263672 2.449219,-0.7949219 1.138672,-0.2685547 2.083984,-0.2685547 2.492188,0 3.974609,1.2460938 1.482422,1.2460942 1.482422,3.3300782 0,0.988281 -0.375976,1.879883 -0.365235,0.880859 -1.342774,2.083984 -0.268554,0.311523 -1.708007,1.804688 -1.439454,1.482421 -4.060547,4.157226 z"
     id="text1"
     style="font-size:22px;font-family:'DejaVu Sans'"
     aria-label="2" />
  <path
     d="M 84.813477,15.321289 H 81.6875 l -0.902344,3.587891 h 3.147461 z M 83.202148,9.2089844 82.084961,13.666992 h 3.136719 l 1.127929,-4.4580076 h 1.71875 l -1.106445,4.4580076 h 3.351563 v 1.654297 h -3.770508 l -0.88086,3.587891 h 3.416016 v 1.643554 H 85.243164 L 84.125977,25 h -1.71875 l 1.106445,-4.447266 H 80.366211 L 79.259766,25 h -1.729493 l 1.117188,-4.447266 H 75.263672 V 18.90918 h 3.78125 l 0.902344,-3.587891 h -3.458985 v -1.654297 h 3.87793 l 1.095703,-4.4580076 z"
     id="text2"
     style="font-size:22px;font-family:'DejaVu Sans';text-anchor:end"
     aria-label="#" />
  <path
     d="m 8.9700195,83.77334 h 1.6317385 l 2.789746,4.17334 2.804785,-4.17334 h 1.631738 L 14.218652,89.164844 18.068652,95 H 16.436914 L 13.278711,90.225098 10.097949,95 H 8.4586914 l 4.0079096,-5.993066 z m 9.5648435,6.391602 h 4.053028 v 1.233203 h -4.053028 z m 6.714942,3.556738 h 2.481445 v -8.564746 l -2.699512,0.541406 v -1.383594 l 2.684473,-0.541406 h 1.518945 v 9.94834 h 2.481445 V 95 h -6.466796 z"
     id="text3"
     style="font-size:15.4px;font-family:'DejaVu Sans'"
     aria-label="X-1" />
</svg>
