<?xml version="1.0" encoding="UTF-8" standalone="no"?>
<svg
   width="13mm"
   height="13mm"
   viewBox="0 0 100 100"
   version="1.1"
   id="svg3"
   sodipodi:docname="L4.svg"
   xmlns:inkscape="http://www.inkscape.org/namespaces/inkscape"
   xmlns:sodipodi="http://sodipodi.sourceforge.net/DTD/sodipodi-0.dtd"
   xmlns="http://www.w3.org/2000/svg"
   xmlns:svg="http://www.w3.org/2000/svg">
  <defs
     id="defs3" />
  <sodipodi:namedview
     id="namedview3"
     pagecolor="#ffffff"
     bordercolor="#000000"
     borderopacity="0.25"
     inkscape:showpageshadow="2"
     inkscape:pageopacity="0.0"
     inkscape:pagecheckerboard="0"
     inkscape:deskcolor="#d1d1d1"
     inkscape:document-units="mm" />
  <path
     d="m 16.926758,16.352539 q 1.557617,0.333008 2.427734,1.385742 0.88086,1.052735 0.88086,2.59961 0,2.374023 -1.632813,3.673828 -1.632812,1.299804 -4.640625,1.299804 -1.009766,0 -2.083984,-0.204101 -1.063477,-0.19336 -2.2021487,-0.59082 v -2.094727 q 0.9023437,0.526367 1.9765627,0.794922 1.074219,0.268555 2.245117,0.268555 2.041016,0 3.104492,-0.805665 1.074219,-0.805664 1.074219,-2.341796 0,-1.417969 -0.999024,-2.212891 -0.988281,-0.805664 -2.760742,-0.805664 h -1.86914 v -1.783203 h 1.955078 q 1.600586,0 2.449218,-0.633789 0.848633,-0.644531 0.848633,-1.847656 0,-1.235352 -0.880859,-1.890625 -0.870117,-0.666016 -2.50293,-0.666016 -0.891601,0 -1.912109,0.193359 -1.020508,0.19336 -2.245117,0.601563 V 9.359375 q 1.235351,-0.34375 2.30957,-0.515625 1.084961,-0.171875 2.041016,-0.171875 2.470703,0 3.910156,1.1279297 1.439453,1.1171873 1.439453,3.0292973 0,1.332031 -0.762695,2.255859 -0.762696,0.913086 -2.169922,1.267578 z"
     id="text1"
     style="font-size:22px;font-family:'DejaVu Sans'"
     aria-label="3" />
  <path
     d="M 85.436523,28.233398 H 84.362305 L 84.351562,25 q -1.127929,-0.02148 -2.255859,-0.257813 -1.12793,-0.24707 -2.266601,-0.730468 v -1.933594 q 1.095703,0.6875 2.21289,1.041992 1.12793,0.34375 2.320313,0.354492 v -4.898437 q -2.374024,-0.386719 -3.458985,-1.310547 -1.074218,-0.923828 -1.074218,-2.535156 0,-1.750977 1.170898,-2.760742 1.170898,-1.009766 3.362305,-1.160157 V 8.2851563 h 1.074218 v 2.4921877 q 0.999024,0.04297 1.933594,0.214844 0.93457,0.161132 1.826172,0.451171 v 1.879883 Q 88.304687,12.87207 87.359375,12.625 86.424805,12.37793 85.436523,12.334961 v 4.586914 q 2.438477,0.375977 3.587891,1.342773 1.149414,0.966797 1.149414,2.642579 0,1.815429 -1.224609,2.868164 -1.213867,1.041992 -3.512696,1.203125 z M 84.362305,16.728516 v -4.404297 q -1.246094,0.139648 -1.901368,0.708984 -0.655273,0.569336 -0.655273,1.514649 0,0.923828 0.601563,1.439453 0.612304,0.515625 1.955078,0.741211 z m 1.074218,2.0625 v 4.651367 q 1.364258,-0.182617 2.051758,-0.773438 0.698242,-0.59082 0.698242,-1.557617 0,-0.945312 -0.666015,-1.503906 -0.655274,-0.558594 -2.083985,-0.816406 z"
     id="text2"
     style="font-size:22px;font-family:'DejaVu Sans';text-anchor:end"
     aria-label="$" />
  <path
     d="m 8.9700195,83.77334 h 1.6317385 l 2.789746,4.17334 2.804785,-4.17334 h 1.631738 L 14.218652,89.164844 18.068652,95 H 16.436914 L 13.278711,90.225098 10.097949,95 H 8.4586914 l 4.0079096,-5.993066 z m 9.5648435,6.391602 h 4.053028 v 1.233203 h -4.053028 z m 11.053711,-1.218165 q 1.090332,0.233106 1.699414,0.97002 0.616602,0.736914 0.616602,1.819727 0,1.661816 -1.142969,2.571679 -1.142969,0.909863 -3.248438,0.909863 -0.706835,0 -1.458789,-0.142871 -0.744433,-0.135351 -1.541503,-0.413574 v -1.466308 q 0.63164,0.368457 1.383593,0.556445 0.751953,0.187988 1.571582,0.187988 1.428711,0 2.173145,-0.563965 0.751953,-0.563965 0.751953,-1.639257 0,-0.992579 -0.699317,-1.549024 -0.691796,-0.563965 -1.932519,-0.563965 H 26.45293 v -1.248242 h 1.368554 q 1.12041,0 1.714453,-0.443652 0.594043,-0.451172 0.594043,-1.29336 0,-0.864746 -0.616601,-1.323437 -0.609082,-0.466211 -1.752051,-0.466211 -0.624121,0 -1.338477,0.135352 -0.714355,0.135351 -1.571582,0.421093 v -1.353515 q 0.864747,-0.240625 1.6167,-0.360938 0.759472,-0.120312 1.428711,-0.120312 1.729492,0 2.737109,0.789551 1.007617,0.782031 1.007617,2.120507 0,0.932422 -0.533887,1.579102 -0.533886,0.63916 -1.518945,0.887304 z"
     id="text3"
     style="font-size:15.4px;font-family:'DejaVu Sans'"
     aria-label="X-3" />
</svg>
