<?xml version="1.0" encoding="UTF-8" standalone="no"?>
<svg
   width="13mm"
   height="13mm"
   viewBox="0 0 100 100"
   version="1.1"
   id="svg3"
   sodipodi:docname="L5.svg"
   xmlns:inkscape="http://www.inkscape.org/namespaces/inkscape"
   xmlns:sodipodi="http://sodipodi.sourceforge.net/DTD/sodipodi-0.dtd"
   xmlns="http://www.w3.org/2000/svg"
   xmlns:svg="http://www.w3.org/2000/svg">
  <defs
     id="defs3" />
  <sodipodi:namedview
     id="namedview3"
     pagecolor="#ffffff"
     bordercolor="#000000"
     borderopacity="0.25"
     inkscape:showpageshadow="2"
     inkscape:pageopacity="0.0"
     inkscape:pagecheckerboard="0"
     inkscape:deskcolor="#d1d1d1"
     inkscape:document-units="mm" />
  <path
     d="m 16.314453,10.852539 -5.478515,8.561523 h 5.478515 z M 15.745117,8.9619141 h 2.728516 V 19.414062 h 2.288086 V 21.21875 H 18.473633 V 25 h -2.15918 V 21.21875 H 9.0742188 v -2.094727 z"
     id="text1"
     style="font-size:22px;font-family:'DejaVu Sans'"
     aria-label="4" />
  <path
     d="m 87.09082,17.942383 q -0.93457,0 -1.471679,0.794922 -0.526368,0.794922 -0.526368,2.21289 0,1.396485 0.526368,2.202149 0.537109,0.794922 1.471679,0.794922 0.913086,0 1.439453,-0.794922 0.53711,-0.805664 0.53711,-2.202149 0,-1.407226 -0.53711,-2.202148 -0.526367,-0.805664 -1.439453,-0.805664 z m 0,-1.364258 q 1.697266,0 2.696289,1.181641 0.999024,1.18164 0.999024,3.190429 0,2.008789 -1.009766,3.19043 -0.999023,1.170898 -2.685547,1.170898 -1.71875,0 -2.717773,-1.170898 -0.999024,-1.181641 -0.999024,-3.19043 0,-2.019531 0.999024,-3.190429 1.009765,-1.181641 2.717773,-1.181641 z M 76.004883,10.036133 q -0.923828,0 -1.460938,0.805664 -0.526367,0.794922 -0.526367,2.191406 0,1.417969 0.526367,2.212891 0.526367,0.794922 1.460938,0.794922 0.93457,0 1.460937,-0.794922 0.53711,-0.794922 0.53711,-2.212891 0,-1.385742 -0.53711,-2.191406 -0.537109,-0.805664 -1.460937,-0.805664 z m 9.700195,-1.364258 h 1.71875 L 77.390625,25.311523 h -1.71875 z m -9.700195,0 q 1.697265,0 2.707031,1.1816406 1.009766,1.1708984 1.009766,3.1796874 0,2.030274 -1.009766,3.201172 -0.999023,1.170898 -2.707031,1.170898 -1.708008,0 -2.707031,-1.170898 -0.988282,-1.181641 -0.988282,-3.201172 0,-1.998047 0.999024,-3.1796874 0.999023,-1.1816406 2.696289,-1.1816406 z"
     id="text2"
     style="font-size:22px;font-family:'DejaVu Sans';text-anchor:end"
     aria-label="%" />
  <path
     d="m 8.9700195,83.77334 h 1.6317385 l 2.789746,4.17334 2.804785,-4.17334 h 1.631738 L 14.218652,89.164844 18.068652,95 H 16.436914 L 13.278711,90.225098 10.097949,95 H 8.4586914 l 4.0079096,-5.993066 z m 9.5648435,6.391602 h 4.053028 v 1.233203 h -4.053028 z m 7.760156,3.556738 h 5.30127 V 95 h -7.128516 v -1.27832 q 0.864746,-0.894824 2.353614,-2.398731 1.496386,-1.511425 1.879882,-1.947558 0.729395,-0.819629 1.015137,-1.383594 0.293262,-0.571484 0.293262,-1.12041 0,-0.894824 -0.631641,-1.458789 -0.624121,-0.563965 -1.631738,-0.563965 -0.714355,0 -1.511426,0.248145 -0.789551,0.248144 -1.691894,0.751953 v -1.533985 q 0.917383,-0.368457 1.714453,-0.556445 0.79707,-0.187988 1.458789,-0.187988 1.744531,0 2.782226,0.872265 1.037696,0.872266 1.037696,2.331055 0,0.691797 -0.263184,1.315918 -0.255664,0.616601 -0.939941,1.458789 -0.187989,0.218066 -1.195606,1.263281 -1.007617,1.037695 -2.842383,2.910059 z"
     id="text3"
     style="font-size:15.4px;font-family:'DejaVu Sans'"
     aria-label="X-2" />
</svg>
