<?xml version="1.0" encoding="UTF-8" standalone="no"?>
<svg
   width="13mm"
   height="13mm"
   viewBox="0 0 100 100"
   version="1.1"
   id="svg3"
   sodipodi:docname="L6.svg"
   xmlns:inkscape="http://www.inkscape.org/namespaces/inkscape"
   xmlns:sodipodi="http://sodipodi.sourceforge.net/DTD/sodipodi-0.dtd"
   xmlns="http://www.w3.org/2000/svg"
   xmlns:svg="http://www.w3.org/2000/svg">
  <defs
     id="defs3" />
  <sodipodi:namedview
     id="namedview3"
     pagecolor="#ffffff"
     bordercolor="#000000"
     borderopacity="0.25"
     inkscape:showpageshadow="2"
     inkscape:pageopacity="0.0"
     inkscape:pagecheckerboard="0"
     inkscape:deskcolor="#d1d1d1"
     inkscape:document-units="mm" />
  <path
     d="m 10.374023,8.9619141 h 8.518555 v 1.8261719 h -6.53125 v 3.931641 q 0.472656,-0.161133 0.945313,-0.236329 0.472656,-0.08594 0.945312,-0.08594 2.685547,0 4.253906,1.47168 1.56836,1.471679 1.56836,3.985351 0,2.588867 -1.611328,4.02832 -1.611329,1.428711 -4.543946,1.428711 -1.009765,0 -2.0625,-0.171875 -1.041992,-0.171875 -2.1591794,-0.515625 v -2.180664 q 0.9667974,0.526368 1.9980474,0.78418 1.03125,0.257813 2.180664,0.257813 1.858398,0 2.943359,-0.97754 1.084961,-0.977539 1.084961,-2.65332 0,-1.675781 -1.084961,-2.65332 -1.084961,-0.977539 -2.943359,-0.977539 -0.870118,0 -1.740235,0.193359 -0.859375,0.19336 -1.761719,0.601563 z"
     id="text1"
     style="font-size:22px;font-family:'DejaVu Sans'"
     aria-label="5" />
  <path
     d="m 80.194336,16.374023 q -0.977539,0.870118 -1.439453,1.740235 -0.451172,0.859375 -0.451172,1.804687 0,1.56836 1.138672,2.610352 1.138672,1.041992 2.857422,1.041992 1.020507,0 1.912109,-0.333008 0.891602,-0.34375 1.675781,-1.03125 z m 1.514648,-1.203125 5.457032,5.585938 q 0.633789,-0.956055 0.988281,-2.041016 0.354492,-1.095703 0.418945,-2.320312 h 1.998047 q -0.128906,1.417969 -0.6875,2.803711 -0.558594,1.385742 -1.557617,2.739258 L 91.323242,25 h -2.707031 l -1.536133,-1.579102 q -1.117187,0.956055 -2.341797,1.428711 -1.224609,0.461914 -2.631836,0.461914 -2.588867,0 -4.232422,-1.471679 -1.643554,-1.482422 -1.643554,-3.791992 0,-1.375 0.719726,-2.578125 0.719727,-1.213868 2.15918,-2.277344 -0.515625,-0.676758 -0.78418,-1.342774 -0.268554,-0.676757 -0.268554,-1.321289 0,-1.740234 1.192382,-2.7929684 1.192383,-1.0634766 3.168946,-1.0634766 0.891601,0 1.772461,0.1933594 0.891601,0.1933594 1.804687,0.5800781 v 1.9550785 q -0.93457,-0.504883 -1.783203,-0.762696 -0.848633,-0.268554 -1.579102,-0.268554 -1.127929,0 -1.836914,0.601562 -0.698242,0.59082 -0.698242,1.536133 0,0.547852 0.311524,1.106445 0.322265,0.547852 1.299804,1.557617 z"
     id="text2"
     style="font-size:22px;font-family:'DejaVu Sans';text-anchor:end"
     aria-label="&amp;" />
  <path
     d="m 8.9700195,83.77334 h 1.6317385 l 2.789746,4.17334 2.804785,-4.17334 h 1.631738 L 14.218652,89.164844 18.068652,95 H 16.436914 L 13.278711,90.225098 10.097949,95 H 8.4586914 l 4.0079096,-5.993066 z m 9.5648435,6.391602 h 4.053028 v 1.233203 h -4.053028 z m 6.203614,-6.865332 h 1.391113 v 6.910449 l 4.128222,-3.631934 h 1.76709 L 27.558301,90.518359 32.21289,95 H 30.408203 L 26.12959,90.886817 V 95 h -1.391113 z"
     id="text3"
     style="font-size:15.4px;font-family:'DejaVu Sans'"
     aria-label="X-k" />
</svg>
