<?xml version="1.0" encoding="UTF-8" standalone="no"?>
<svg
   width="13mm"
   height="13mm"
   viewBox="0 0 100 100"
   version="1.1"
   id="svg2"
   sodipodi:docname="L7.svg"
   xmlns:inkscape="http://www.inkscape.org/namespaces/inkscape"
   xmlns:sodipodi="http://sodipodi.sourceforge.net/DTD/sodipodi-0.dtd"
   xmlns="http://www.w3.org/2000/svg"
   xmlns:svg="http://www.w3.org/2000/svg">
  <defs
     id="defs2" />
  <sodipodi:namedview
     id="namedview2"
     pagecolor="#ffffff"
     bordercolor="#000000"
     borderopacity="0.25"
     inkscape:showpageshadow="2"
     inkscape:pageopacity="0.0"
     inkscape:pagecheckerboard="0"
     inkscape:deskcolor="#d1d1d1"
     inkscape:document-units="mm" />
  <path
     d="m 42.13916,48.013672 v 1.635254 q -0.95459,-0.456543 -1.801269,-0.680664 -0.84668,-0.224121 -1.635254,-0.224121 -1.369629,0 -2.1167,0.53125 -0.738769,0.53125 -0.738769,1.510742 0,0.821777 0.489746,1.245117 0.498047,0.415039 1.875977,0.672363 l 1.012695,0.20752 q 1.875976,0.356933 2.76416,1.261719 0.896484,0.896484 0.896484,2.407226 0,1.80127 -1.211914,2.730957 -1.203613,0.929688 -3.536132,0.929688 -0.879883,0 -1.875977,-0.199219 -0.987793,-0.199219 -2.050293,-0.589356 v -1.726562 q 1.020996,0.572754 2.000488,0.863281 0.979493,0.290528 1.925782,0.290528 1.436035,0 2.216308,-0.564454 0.780274,-0.564453 0.780274,-1.610351 0,-0.913086 -0.564454,-1.427735 -0.556152,-0.514648 -1.834472,-0.771972 l -1.020996,-0.199219 q -1.875977,-0.373535 -2.714356,-1.17041 -0.838379,-0.796875 -0.838379,-2.216309 0,-1.643554 1.153809,-2.589843 1.162109,-0.94629 3.195801,-0.94629 0.871582,0 1.776367,0.157715 0.904785,0.157715 1.851074,0.473145 z m 11.023438,6.375 V 60 h -1.527344 v -5.561523 q 0,-1.319825 -0.514649,-1.975586 -0.514648,-0.655762 -1.543945,-0.655762 -1.236816,0 -1.950683,0.788574 -0.713868,0.788574 -0.713868,2.149902 V 60 H 45.376465 V 47.083984 h 1.535644 v 5.063477 q 0.547852,-0.838379 1.286621,-1.253418 0.747071,-0.415039 1.718262,-0.415039 1.602051,0 2.423828,0.996094 0.821778,0.987793 0.821778,2.913574 z m 7.752929,-7.304688 v 1.27002 H 59.45459 q -0.821778,0 -1.145508,0.332031 -0.31543,0.332031 -0.31543,1.195313 v 0.821777 h 2.515137 v 1.187012 H 57.993652 V 60 H 56.458008 V 51.890137 H 54.99707 v -1.187012 h 1.460938 v -0.647461 q 0,-1.552246 0.722168,-2.257812 0.722168,-0.713868 2.291015,-0.713868 z m 2.490235,0.979493 v 2.639648 h 3.145996 v 1.187012 h -3.145996 v 5.046875 q 0,1.137207 0.307129,1.460937 0.315429,0.323731 1.270019,0.323731 h 1.568848 V 60 H 64.98291 q -1.768066,0 -2.44043,-0.655762 -0.672363,-0.664062 -0.672363,-2.407226 v -5.046875 h -1.120605 v -1.187012 h 1.120605 v -2.639648 z"
     id="text1"
     style="font-size:17px;font-family:'DejaVu Sans';text-anchor:middle"
     aria-label="Shft" />
  <path
     d="m 58.49297,83.77334 h 9.497167 v 1.27832 H 64.004786 V 95 H 62.478321 V 85.05166 H 58.49297 Z m 15.520312,1.030176 q -1.654297,0 -2.631836,1.233203 -0.970019,1.233203 -0.970019,3.36123 0,2.120508 0.970019,3.353711 0.977539,1.233203 2.631836,1.233203 1.654297,0 2.616797,-1.233203 0.970019,-1.233203 0.970019,-3.353711 0,-2.128027 -0.970019,-3.36123 -0.9625,-1.233203 -2.616797,-1.233203 z m 0,-1.233203 q 2.361133,0 3.774805,1.586621 1.413672,1.579101 1.413672,4.241015 0,2.654395 -1.413672,4.241016 -1.413672,1.579101 -3.774805,1.579101 -2.368652,0 -3.789844,-1.579101 -1.413671,-1.579102 -1.413671,-4.241016 0,-2.661914 1.413671,-4.241015 1.421192,-1.586621 3.789844,-1.586621 z m 15.219531,9.828027 v -3.015332 h -2.481446 v -1.248242 h 3.985352 v 4.820019 q -0.879785,0.624121 -1.940039,0.947461 -1.060254,0.31582 -2.263379,0.31582 -2.631836,0 -4.120703,-1.533984 -1.481348,-1.541504 -1.481348,-4.286133 0,-2.752148 1.481348,-4.286132 1.488867,-1.541504 4.120703,-1.541504 1.097852,0 2.08291,0.270703 0.992578,0.270703 1.827246,0.79707 v 1.616699 q -0.842187,-0.714355 -1.789648,-1.075293 -0.947461,-0.360937 -1.992676,-0.360937 -2.060351,0 -3.098047,1.150488 -1.030175,1.150488 -1.030175,3.428906 0,2.270899 1.030175,3.421387 1.037696,1.150488 3.098047,1.150488 0.80459,0 1.436231,-0.135351 0.63164,-0.142871 1.135449,-0.436133 z"
     id="text2"
     style="font-size:15.4px;font-family:'DejaVu Sans';text-anchor:end"
     aria-label="TOG" />
</svg>
