<?xml version="1.0" encoding="UTF-8" standalone="no"?>
<svg
   width="13mm"
   height="13mm"
   viewBox="0 0 100 100"
   version="1.1"
   id="svg3"
   sodipodi:docname="L8.svg"
   xmlns:inkscape="http://www.inkscape.org/namespaces/inkscape"
   xmlns:sodipodi="http://sodipodi.sourceforge.net/DTD/sodipodi-0.dtd"
   xmlns="http://www.w3.org/2000/svg"
   xmlns:svg="http://www.w3.org/2000/svg">
  <defs
     id="defs3" />
  <sodipodi:namedview
     id="namedview3"
     pagecolor="#ffffff"
     bordercolor="#000000"
     borderopacity="0.25"
     inkscape:showpageshadow="2"
     inkscape:pageopacity="0.0"
     inkscape:pagecheckerboard="0"
     inkscape:deskcolor="#d1d1d1"
     inkscape:document-units="mm" />
  <path
     d="m 15.261719,16.116211 q -1.460938,0 -2.320313,0.999023 -0.848633,0.999024 -0.848633,2.739258 0,1.729492 0.848633,2.739258 0.859375,0.999023 2.320313,0.999023 1.460937,0 2.30957,-0.999023 0.859375,-1.009766 0.859375,-2.739258 0,-1.740234 -0.859375,-2.739258 -0.848633,-0.999023 -2.30957,-0.999023 z m 4.307617,-6.7998047 v 1.9765627 q -0.816406,-0.386719 -1.654297,-0.590821 -0.827148,-0.204101 -1.643555,-0.204101 -2.148437,0 -3.287109,1.450195 -1.12793,1.450196 -1.289062,4.382813 0.633789,-0.934571 1.589843,-1.428711 0.956055,-0.504883 2.105469,-0.504883 2.416992,0 3.813477,1.47168 1.407226,1.460937 1.407226,3.985351 0,2.470703 -1.460937,3.963867 -1.460938,1.493164 -3.888672,1.493164 -2.782227,0 -4.253906,-2.126953 -1.4716802,-2.137695 -1.4716802,-6.1875 0,-3.802734 1.8046872,-6.058593 1.804688,-2.266602 4.844727,-2.266602 0.816406,0 1.643555,0.1611328 0.83789,0.1611328 1.740234,0.4833985 z"
     id="text1"
     style="font-size:22px;font-family:'DejaVu Sans'"
     aria-label="6" />
  <path
     d="m 85.135742,18.092773 h 5.790039 v 1.761719 h -5.790039 z"
     id="text2"
     style="font-size:22px;font-family:'DejaVu Sans';text-anchor:end"
     aria-label="-" />
  <path
     d="m 56.592189,85.960352 h 1.223046 v 3.705468 h 4.444141 v -3.705468 h 1.223047 V 95 H 62.259376 V 90.695117 H 57.815235 V 95 h -1.223046 z m 9.184961,0 h 1.229101 v 5.491601 q 0,1.453125 0.526758,2.094922 0.526758,0.635742 1.707422,0.635742 1.174609,0 1.701367,-0.635742 0.526758,-0.641797 0.526758,-2.094922 v -5.491601 h 1.229101 v 5.642968 q 0,1.767969 -0.87793,2.670118 -0.871875,0.902148 -2.579296,0.902148 -1.713477,0 -2.591406,-0.902148 Q 65.77715,93.371289 65.77715,91.60332 Z m 9.215235,0 h 5.715624 v 1.029297 h -4.492577 v 2.676171 h 4.304882 v 1.029297 h -4.304882 v 3.275586 h 4.601562 V 95 h -5.824609 z m 12.321287,1.265429 v 3.372461 h 3.372461 v 1.029297 H 87.313672 V 95 h -1.017187 v -3.372461 h -3.372461 v -1.029297 h 3.372461 v -3.372461 z"
     id="text3"
     style="font-size:12.4px;font-family:'DejaVu Sans';text-anchor:end"
     aria-label="HUE+" />
</svg>
