<?xml version="1.0" encoding="UTF-8" standalone="no"?>
<svg
   width="13mm"
   height="13mm"
   viewBox="0 0 100 100"
   version="1.1"
   id="svg4"
   sodipodi:docname="L9.svg"
   xmlns:inkscape="http://www.inkscape.org/namespaces/inkscape"
   xmlns:sodipodi="http://sodipodi.sourceforge.net/DTD/sodipodi-0.dtd"
   xmlns="http://www.w3.org/2000/svg"
   xmlns:svg="http://www.w3.org/2000/svg">
  <defs
     id="defs4" />
  <sodipodi:namedview
     id="namedview4"
     pagecolor="#ffffff"
     bordercolor="#000000"
     borderopacity="0.25"
     inkscape:showpageshadow="2"
     inkscape:pageopacity="0.0"
     inkscape:pagecheckerboard="0"
     inkscape:deskcolor="#d1d1d1"
     inkscape:document-units="mm" />
  <path
     d="M 9.8046875,8.9619141 H 20.117187 V 9.8857422 L 14.294922,25 H 12.02832 L 17.506836,10.788086 H 9.8046875 Z"
     id="text1"
     style="font-size:22px;font-family:'DejaVu Sans'"
     aria-label="7" />
  <path
     d="m 92.214844,28.652344 v 1.536133 H 80.785156 v -1.536133 z"
     id="text2"
     style="font-size:22px;font-family:'DejaVu Sans';text-anchor:end"
     aria-label="_" />
  <path
     d="m 9.3164551,79.763819 h 2.2145019 l 3.786084,5.663818 3.806494,-5.663818 h 2.214502 L 16.439599,87.08086 21.664599,95 H 19.450097 L 15.163965,88.519776 10.847217,95 H 8.6225098 L 14.061816,86.866553 Z M 34.757714,92.826318 v -4.092236 h -3.367675 v -1.694043 h 5.408691 v 6.541455 q -1.193994,0.847022 -2.63291,1.28584 -1.438916,0.428613 -3.071729,0.428613 -3.571777,0 -5.592382,-2.081836 -2.010401,-2.092041 -2.010401,-5.816894 0,-3.735059 2.010401,-5.816894 2.020605,-2.092041 5.592382,-2.092041 1.489942,0 2.826807,0.367382 1.34707,0.367383 2.479834,1.081739 v 2.194091 q -1.142969,-0.969482 -2.428809,-1.459326 -1.28584,-0.489844 -2.704345,-0.489844 -2.796192,0 -4.204493,1.561377 -1.398095,1.561377 -1.398095,4.653516 0,3.081933 1.398095,4.64331 1.408301,1.561377 4.204493,1.561377 1.091943,0 1.949169,-0.183691 0.857227,-0.193897 1.540967,-0.591895 z"
     id="text3"
     style="font-size:20.9px;font-family:'DejaVu Sans'"
     aria-label="XG" />
  <path
     d="m 65.050587,86.257032 v 1.192773 q -0.696289,-0.333008 -1.313867,-0.496484 -0.617578,-0.163477 -1.192774,-0.163477 -0.999023,0 -1.543945,0.3875 -0.538867,0.3875 -0.538867,1.101953 0,0.599414 0.357226,0.908203 0.363282,0.302735 1.36836,0.49043 l 0.738672,0.151367 q 1.368359,0.260352 2.01621,0.920313 0.653907,0.653906 0.653907,1.755859 0,1.313867 -0.883985,1.991992 -0.877929,0.678125 -2.579297,0.678125 -0.641796,0 -1.368359,-0.145313 -0.720508,-0.145312 -1.495508,-0.429882 v -1.259375 q 0.744727,0.417773 1.45918,0.629687 0.714453,0.211914 1.404687,0.211914 1.047461,0 1.616602,-0.411719 0.569141,-0.411718 0.569141,-1.174609 0,-0.666015 -0.411719,-1.041406 -0.405664,-0.375391 -1.338086,-0.563086 l -0.744727,-0.145312 q -1.368359,-0.272461 -1.979882,-0.853711 -0.611524,-0.58125 -0.611524,-1.616602 0,-1.198828 0.841602,-1.889062 0.847656,-0.690235 2.331054,-0.690235 0.635743,0 1.295703,0.115039 0.659961,0.115039 1.350196,0.345118 z m 5.703515,0.908203 -1.658984,4.498632 h 3.324023 z m -0.690234,-1.204883 h 1.386523 L 74.895508,95 H 73.624024 L 72.800586,92.681055 H 68.725782 L 67.902344,95 h -1.289648 z m 3.935547,0 h 7.64707 v 1.029297 H 78.437501 V 95 h -1.229102 v -8.010351 h -3.208984 z m 13.314257,1.265429 v 3.372461 h 3.372461 v 1.029297 H 87.313672 V 95 h -1.017187 v -3.372461 h -3.372461 v -1.029297 h 3.372461 v -3.372461 z"
     id="text4"
     style="font-size:12.4px;font-family:'DejaVu Sans';text-anchor:end"
     aria-label="SAT+" />
</svg>
