<?xml version="1.0" encoding="UTF-8" standalone="no"?>
<svg
   width="13mm"
   height="13mm"
   viewBox="0 0 100 100"
   version="1.1"
   id="svg2"
   sodipodi:docname="R1.svg"
   xmlns:inkscape="http://www.inkscape.org/namespaces/inkscape"
   xmlns:sodipodi="http://sodipodi.sourceforge.net/DTD/sodipodi-0.dtd"
   xmlns="http://www.w3.org/2000/svg"
   xmlns:svg="http://www.w3.org/2000/svg">
  <defs
     id="defs2" />
  <sodipodi:namedview
     id="namedview2"
     pagecolor="#ffffff"
     bordercolor="#000000"
     borderopacity="0.25"
     inkscape:showpageshadow="2"
     inkscape:pageopacity="0.0"
     inkscape:pagecheckerboard="0"
     inkscape:deskcolor="#d1d1d1"
     inkscape:document-units="mm" />
  <path
     d="m 32.767578,54.081543 v 4.540527 h 2.689453 q 1.353028,0 2.000489,-0.556152 0.655761,-0.564453 0.655761,-1.718262 0,-1.162109 -0.655761,-1.709961 -0.647461,-0.556152 -2.000489,-0.556152 z m 0,-5.09668 v 3.735352 h 2.481934 q 1.228515,0 1.826172,-0.456543 0.605957,-0.464844 0.605957,-1.411133 0,-0.937988 -0.605957,-1.402832 -0.597657,-0.464844 -1.826172,-0.464844 z M 31.09082,47.606934 h 4.283203 q 1.917481,0 2.955079,0.796875 1.037597,0.796875 1.037597,2.266113 0,1.137207 -0.53125,1.80957 -0.53125,0.672363 -1.560547,0.838379 1.236817,0.265625 1.917481,1.112305 0.688965,0.838379 0.688965,2.100097 0,1.660157 -1.128907,2.564942 Q 37.623535,60 35.540039,60 H 31.09082 Z m 11.538086,-0.52295 h 1.535645 v 7.628418 l 4.557129,-4.009277 h 1.950683 L 45.741699,55.052734 50.879883,60 H 48.887695 L 44.164551,55.459473 V 60 h -1.535645 z m 15.82959,3.893067 v 1.444336 q -0.647461,-0.332032 -1.344726,-0.498047 -0.697266,-0.166016 -1.444336,-0.166016 -1.137207,0 -1.709961,0.348633 -0.564453,0.348633 -0.564453,1.045898 0,0.53125 0.406738,0.838379 0.406738,0.298828 1.635254,0.572754 l 0.522949,0.116211 q 1.626953,0.348633 2.307617,0.987793 0.688965,0.63086 0.688965,1.768067 0,1.294921 -1.029297,2.050293 -1.020996,0.755371 -2.813965,0.755371 -0.74707,0 -1.560547,-0.149414 -0.805175,-0.141114 -1.70166,-0.431641 V 58.08252 q 0.84668,0.439941 1.668457,0.664062 0.821778,0.21582 1.626953,0.21582 1.079102,0 1.660157,-0.365234 0.581054,-0.373535 0.581054,-1.045898 0,-0.622559 -0.42334,-0.95459 -0.415039,-0.332032 -1.834472,-0.63916 l -0.53125,-0.124512 q -1.419434,-0.298828 -2.050293,-0.913086 -0.63086,-0.622559 -0.63086,-1.70166 0,-1.311524 0.929688,-2.025391 0.929687,-0.713867 2.639648,-0.713867 0.84668,0 1.59375,0.124512 0.747071,0.124511 1.37793,0.373535 z m 4.407715,7.628418 v 4.930664 H 61.330566 V 50.703125 h 1.535645 v 1.411133 q 0.481445,-0.830078 1.211914,-1.228516 0.73877,-0.406738 1.759766,-0.406738 1.693359,0 2.747558,1.344726 1.0625,1.344727 1.0625,3.536133 0,2.191407 -1.0625,3.536133 -1.054199,1.344727 -2.747558,1.344727 -1.020996,0 -1.759766,-0.398438 -0.730469,-0.406738 -1.211914,-1.236816 z M 68.0625,55.359863 q 0,-1.685058 -0.697266,-2.639648 -0.688964,-0.962891 -1.900879,-0.962891 -1.211914,0 -1.909179,0.962891 -0.688965,0.95459 -0.688965,2.639648 0,1.685059 0.688965,2.647949 0.697265,0.95459 1.909179,0.95459 1.211915,0 1.900879,-0.95459 0.697266,-0.96289 0.697266,-2.647949 z"
     id="text1"
     style="font-size:17px;font-family:'DejaVu Sans';text-anchor:middle"
     aria-label="Bksp" />
  <path
     d="m 8.5113281,83.77334 h 1.5339839 l 2.361133,9.489648 2.353613,-9.489648 h 1.706934 l 2.361133,9.489648 2.353613,-9.489648 h 1.541504 L 19.903418,95 H 17.993457 L 15.624804,85.254688 13.233594,95 h -1.909961 z m 21.7991209,1.571582 v 4.188379 h 4.188379 v 1.27832 H 30.310449 V 95 h -1.263281 v -4.188379 h -4.188379 v -1.27832 h 4.188379 v -4.188379 z m 11.888378,-0.541406 q -1.654297,0 -2.631836,1.233203 -0.970019,1.233203 -0.970019,3.36123 0,2.120508 0.970019,3.353711 0.977539,1.233203 2.631836,1.233203 1.654297,0 2.616797,-1.233203 0.97002,-1.233203 0.97002,-3.353711 0,-2.128027 -0.97002,-3.36123 -0.9625,-1.233203 -2.616797,-1.233203 z m 2.128028,9.993457 2.000195,2.188183 h -1.834766 l -1.661816,-1.797168 q -0.248145,0.01504 -0.383496,0.02256 -0.127832,0.0075 -0.248145,0.0075 -2.368652,0 -3.789843,-1.579101 -1.413672,-1.586621 -1.413672,-4.241016 0,-2.661914 1.413672,-4.241015 1.421191,-1.586621 3.789843,-1.586621 2.361133,0 3.774805,1.586621 1.413672,1.579101 1.413672,4.241015 0,1.955078 -0.789551,3.346192 -0.782031,1.391113 -2.270898,2.052832 z"
     id="text2"
     style="font-size:15.4px;font-family:'DejaVu Sans'"
     aria-label="W+Q" />
</svg>
