<?xml version="1.0" encoding="UTF-8" standalone="no"?>
<svg
   width="13mm"
   height="13mm"
   viewBox="0 0 100 100"
   version="1.1"
   id="svg3"
   sodipodi:docname="R11.svg"
   xmlns:inkscape="http://www.inkscape.org/namespaces/inkscape"
   xmlns:sodipodi="http://sodipodi.sourceforge.net/DTD/sodipodi-0.dtd"
   xmlns="http://www.w3.org/2000/svg"
   xmlns:svg="http://www.w3.org/2000/svg">
  <defs
     id="defs3" />
  <sodipodi:namedview
     id="namedview3"
     pagecolor="#ffffff"
     bordercolor="#000000"
     borderopacity="0.25"
     inkscape:showpageshadow="2"
     inkscape:pageopacity="0.0"
     inkscape:pagecheckerboard="0"
     inkscape:deskcolor="#d1d1d1"
     inkscape:document-units="mm" />
  <path
     d="m 9.0742188,18.586914 v -0.966797 l 4.2216792,-4.221679 1.289063,1.289062 -2.50293,2.50293 h 13.094727 v 1.826172 H 12.082031 l 2.50293,2.502929 -1.289063,1.289063 z"
     id="text1"
     style="font-size:22px;font-family:'DejaVu Sans'"
     aria-label="←" />
  <path
     d="m 80.75293,27.041016 h 0.751953 q 1.503906,0 1.955078,-0.461914 0.461914,-0.461915 0.461914,-1.998047 v -2.664063 q 0,-1.675781 0.483398,-2.438476 0.483399,-0.762696 1.675782,-1.052735 -1.192383,-0.268554 -1.675782,-1.03125 -0.483398,-0.762695 -0.483398,-2.449218 V 12.28125 q 0,-1.525391 -0.461914,-1.987305 Q 83.008789,9.8212891 81.504883,9.8212891 H 80.75293 V 8.2851563 h 0.676757 q 2.674805,0 3.566407,0.7949218 0.902343,0.7841797 0.902343,3.1582029 v 2.578125 q 0,1.600586 0.580079,2.223633 0.580078,0.612305 2.105468,0.612305 H 89.25 v 1.536133 h -0.666016 q -1.52539,0 -2.105468,0.623046 -0.580079,0.623047 -0.580079,2.245118 v 2.567382 q 0,2.374024 -0.902343,3.168946 -0.891602,0.794922 -3.566407,0.794922 H 80.75293 Z"
     id="text2"
     style="font-size:22px;font-family:'DejaVu Sans';text-anchor:end"
     aria-label="}" />
  <path
     d="m 8.5113281,83.77334 h 1.5339839 l 2.361133,9.489648 2.353613,-9.489648 h 1.706934 l 2.361133,9.489648 2.353613,-9.489648 h 1.541504 L 19.903418,95 H 17.993457 L 15.624804,85.254688 13.233594,95 h -1.909961 z m 21.7991209,1.571582 v 4.188379 h 4.188379 v 1.27832 H 30.310449 V 95 h -1.263281 v -4.188379 h -4.188379 v -1.27832 h 4.188379 v -4.188379 z m 6.57207,5.165918 v -0.676758 l 2.955175,-2.955176 0.902344,0.902344 -1.752051,1.752051 h 9.166309 v 1.27832 h -9.166309 l 1.752051,1.752051 -0.902344,0.902344 z"
     id="text3"
     style="font-size:15.4px;font-family:'DejaVu Sans'"
     aria-label="W+←" />
</svg>
