<?xml version="1.0" encoding="UTF-8" standalone="no"?>
<svg
   width="13mm"
   height="13mm"
   viewBox="0 0 100 100"
   version="1.1"
   id="svg2"
   sodipodi:docname="R13.svg"
   xmlns:inkscape="http://www.inkscape.org/namespaces/inkscape"
   xmlns:sodipodi="http://sodipodi.sourceforge.net/DTD/sodipodi-0.dtd"
   xmlns="http://www.w3.org/2000/svg"
   xmlns:svg="http://www.w3.org/2000/svg">
  <defs
     id="defs2" />
  <sodipodi:namedview
     id="namedview2"
     pagecolor="#ffffff"
     bordercolor="#000000"
     borderopacity="0.25"
     inkscape:showpageshadow="2"
     inkscape:pageopacity="0.0"
     inkscape:pagecheckerboard="0"
     inkscape:deskcolor="#d1d1d1"
     inkscape:document-units="mm" />
  <path
     d="m 36.429688,48.482813 h 1.399219 l -2.292188,2.64375 h -1.075781 z m 8.613281,1.019531 h 6.6375 v 1.195312 h -5.217187 v 3.107813 H 51.4625 v 1.195312 h -4.999218 v 3.803907 h 5.34375 V 60 h -6.764063 z m 14.062499,2.854687 v 1.223438 q -0.548438,-0.28125 -1.139063,-0.421875 -0.590625,-0.140625 -1.223437,-0.140625 -0.963281,0 -1.448437,0.295312 -0.478125,0.295313 -0.478125,0.885938 0,0.45 0.344531,0.710156 0.344531,0.253125 1.385156,0.485156 l 0.442969,0.09844 q 1.378125,0.295312 1.954687,0.836719 0.583594,0.534375 0.583594,1.497656 0,1.096875 -0.871875,1.736719 -0.864844,0.639843 -2.383594,0.639843 -0.632812,0 -1.321875,-0.126562 -0.682031,-0.119531 -1.441406,-0.365625 v -1.335938 q 0.717188,0.372657 1.413281,0.5625 0.696094,0.182813 1.378125,0.182813 0.914063,0 1.40625,-0.309375 0.492188,-0.316406 0.492188,-0.885938 0,-0.527343 -0.358594,-0.808593 -0.351563,-0.28125 -1.553906,-0.541407 l -0.45,-0.105468 q -1.202344,-0.253125 -1.736719,-0.773438 -0.534375,-0.527344 -0.534375,-1.441406 0,-1.110938 0.7875,-1.715625 0.7875,-0.604688 2.235937,-0.604688 0.717188,0 1.35,0.105469 0.632813,0.105469 1.167188,0.316406 z m 8.149219,0.07031 v 1.209375 q -0.548437,-0.302344 -1.103906,-0.45 -0.548438,-0.154688 -1.110938,-0.154688 -1.258593,0 -1.954687,0.801563 -0.696094,0.794531 -0.696094,2.235937 0,1.441407 0.696094,2.242969 0.696094,0.794531 1.954687,0.794531 0.5625,0 1.110938,-0.147656 0.555469,-0.154687 1.103906,-0.457031 v 1.195312 q -0.541406,0.253125 -1.125,0.379688 -0.576562,0.126562 -1.230469,0.126562 -1.778906,0 -2.826562,-1.117968 Q 61.025,57.967969 61.025,56.069531 q 0,-1.926562 1.054687,-3.030468 1.061719,-1.103907 2.903906,-1.103907 0.597657,0 1.167188,0.126563 0.569531,0.119531 1.103906,0.365625 z"
     id="text1"
     style="font-size:14.4px;font-family:'DejaVu Sans';text-anchor:middle"
     aria-label="´ Esc" />
  <path
     d="m 83.685547,11.207031 v 5.983399 h 5.983398 v 1.826172 H 83.685547 V 25 H 81.880859 V 19.016602 H 75.897461 V 17.19043 h 5.983398 v -5.983399 z"
     id="text2"
     style="font-size:22px;font-family:'DejaVu Sans';text-anchor:end"
     aria-label="+" />
</svg>
