<?xml version="1.0" encoding="UTF-8" standalone="no"?>
<svg
   width="13mm"
   height="13mm"
   viewBox="0 0 100 100"
   version="1.1"
   id="svg4"
   sodipodi:docname="R19.svg"
   xmlns:inkscape="http://www.inkscape.org/namespaces/inkscape"
   xmlns:sodipodi="http://sodipodi.sourceforge.net/DTD/sodipodi-0.dtd"
   xmlns="http://www.w3.org/2000/svg"
   xmlns:svg="http://www.w3.org/2000/svg">
  <defs
     id="defs4" />
  <sodipodi:namedview
     id="namedview4"
     pagecolor="#ffffff"
     bordercolor="#000000"
     borderopacity="0.25"
     inkscape:showpageshadow="2"
     inkscape:pageopacity="0.0"
     inkscape:pagecheckerboard="0"
     inkscape:deskcolor="#d1d1d1"
     inkscape:document-units="mm" />
  <path
     d="m 43.550488,57.805518 v -4.131397 h -3.399902 v -1.710254 h 5.460449 v 6.604053 q -1.20542,0.855127 -2.658105,1.298144 -1.452686,0.432715 -3.101124,0.432715 -3.605957,0 -5.645898,-2.101758 -2.029639,-2.11206 -2.029639,-5.872558 0,-3.770801 2.029639,-5.872559 2.039941,-2.112061 5.645898,-2.112061 1.5042,0 2.853858,0.370899 1.359961,0.370898 2.503564,1.09209 v 2.215088 q -1.153906,-0.97876 -2.45205,-1.473291 -1.298145,-0.494532 -2.730225,-0.494532 -2.822949,0 -4.244727,1.576319 -1.411474,1.576318 -1.411474,4.698047 0,3.111426 1.411474,4.687744 1.421778,1.576318 4.244727,1.576318 1.102393,0 1.967822,-0.185449 0.86543,-0.195752 1.555713,-0.597558 z m 5.625293,-13.187501 h 2.091455 v 9.344581 q 0,2.472656 0.896338,3.564746 0.896337,1.081787 2.905371,1.081787 1.99873,0 2.895068,-1.081787 0.896338,-1.09209 0.896338,-3.564746 v -9.344581 h 2.091455 v 9.602149 q 0,3.008398 -1.493896,4.543506 -1.483594,1.535107 -4.388965,1.535107 -2.915674,0 -4.409571,-1.535107 -1.483593,-1.535108 -1.483593,-4.543506 z m 15.680762,0 h 2.081153 V 60 h -2.081153 z"
     id="text1"
     style="font-size:21.1px;font-family:'DejaVu Sans';text-anchor:middle"
     aria-label="GUI" />
  <path
     d="m 13.503711,20.761719 q 0.393554,0.133203 0.76289,0.56914 0.375391,0.435938 0.750782,1.198829 L 16.258593,25 h -1.313867 l -1.156445,-2.318945 q -0.448047,-0.908203 -0.871875,-1.204883 -0.417773,-0.29668 -1.144336,-0.29668 H 10.440039 V 25 H 9.2169922 V 15.960352 H 11.97793 q 1.55,0 2.31289,0.647851 0.762891,0.647852 0.762891,1.955664 0,0.853711 -0.39961,1.416797 -0.393554,0.563086 -1.15039,0.781055 z M 10.440039,16.96543 v 3.208984 h 1.537891 q 0.883984,0 1.332031,-0.405664 0.454101,-0.411719 0.454101,-1.204883 0,-0.793164 -0.454101,-1.192773 Q 12.861914,16.96543 11.97793,16.96543 Z m 9.911523,0.199805 -1.658984,4.498632 h 3.324023 z m -0.690234,-1.204883 h 1.386523 L 24.492968,25 H 23.221484 L 22.398047,22.681055 H 18.323242 L 17.499805,25 h -1.289649 z m 6.103124,-0.381445 h 1.114063 V 25 h -1.114063 z m 4.547071,0.714453 v 1.92539 h 2.294727 v 0.86582 h -2.294727 v 3.68125 q 0,0.829493 0.224024,1.065625 0.230078,0.236133 0.926367,0.236133 H 32.60625 V 25 h -1.144336 q -1.289648,0 -1.780078,-0.47832 -0.49043,-0.484375 -0.49043,-1.75586 v -3.68125 h -0.817383 v -0.86582 h 0.817383 v -1.92539 z"
     id="text2"
     style="font-size:12.4px;font-family:'DejaVu Sans'"
     aria-label="RAlt" />
  <path
     d="m 72.600782,20.761719 q 0.393555,0.133203 0.76289,0.56914 0.375391,0.435938 0.750782,1.198829 L 75.355665,25 h -1.313868 l -1.156445,-2.318945 q -0.448047,-0.908203 -0.871875,-1.204883 -0.417773,-0.29668 -1.144336,-0.29668 H 69.53711 V 25 h -1.223047 v -9.039648 h 2.760938 q 1.55,0 2.31289,0.647851 0.762891,0.647852 0.762891,1.955664 0,0.853711 -0.39961,1.416797 -0.393554,0.563086 -1.15039,0.781055 z M 69.53711,16.96543 v 3.208984 h 1.537891 q 0.883984,0 1.332031,-0.405664 0.454101,-0.411719 0.454101,-1.204883 0,-0.793164 -0.454101,-1.192773 -0.448047,-0.405664 -1.332031,-0.405664 z m 9.911523,0.199805 -1.658984,4.498632 h 3.324023 z m -0.690234,-1.204883 h 1.386523 L 83.59004,25 H 82.318555 L 81.495118,22.681055 H 77.420313 L 76.596876,25 h -1.289649 z m 6.103124,-0.381445 h 1.114063 V 25 h -1.114063 z m 4.547071,0.714453 v 1.92539 h 2.294727 v 0.86582 h -2.294727 v 3.68125 q 0,0.829493 0.224024,1.065625 0.230078,0.236133 0.926367,0.236133 h 1.144336 V 25 h -1.144336 q -1.289648,0 -1.780078,-0.47832 -0.49043,-0.484375 -0.49043,-1.75586 v -3.68125 h -0.817382 v -0.86582 h 0.817382 v -1.92539 z"
     id="text3"
     style="font-size:12.4px;font-family:'DejaVu Sans';text-anchor:end"
     aria-label="RAlt" />
  <path
     d="m 72.600782,90.761719 q 0.393555,0.133203 0.76289,0.56914 0.375391,0.435938 0.750782,1.198829 L 75.355665,95 h -1.313868 l -1.156445,-2.318945 q -0.448047,-0.908203 -0.871875,-1.204883 -0.417773,-0.29668 -1.144336,-0.29668 H 69.53711 V 95 h -1.223047 v -9.039648 h 2.760938 q 1.55,0 2.31289,0.647851 0.762891,0.647852 0.762891,1.955664 0,0.853711 -0.39961,1.416797 -0.393554,0.563086 -1.15039,0.781055 z M 69.53711,86.96543 v 3.208984 h 1.537891 q 0.883984,0 1.332031,-0.405664 0.454101,-0.411719 0.454101,-1.204883 0,-0.793164 -0.454101,-1.192773 -0.448047,-0.405664 -1.332031,-0.405664 z m 9.911523,0.199805 -1.658984,4.498632 h 3.324023 z m -0.690234,-1.204883 h 1.386523 L 83.59004,95 H 82.318555 L 81.495118,92.681055 H 77.420313 L 76.596876,95 h -1.289649 z m 6.103124,-0.381445 h 1.114063 V 95 h -1.114063 z m 4.547071,0.714453 v 1.92539 h 2.294727 v 0.86582 h -2.294727 v 3.68125 q 0,0.829493 0.224024,1.065625 0.230078,0.236133 0.926367,0.236133 h 1.144336 V 95 h -1.144336 q -1.289648,0 -1.780078,-0.47832 -0.49043,-0.484375 -0.49043,-1.75586 v -3.68125 h -0.817382 v -0.86582 h 0.817382 v -1.92539 z"
     id="text4"
     style="font-size:12.4px;font-family:'DejaVu Sans';text-anchor:end"
     aria-label="RAlt" />
</svg>
