<?xml version="1.0" encoding="UTF-8" standalone="no"?>
<svg
   width="13mm"
   height="13mm"
   viewBox="0 0 100 100"
   version="1.1"
   id="svg3"
   sodipodi:docname="R2.svg"
   xmlns:inkscape="http://www.inkscape.org/namespaces/inkscape"
   xmlns:sodipodi="http://sodipodi.sourceforge.net/DTD/sodipodi-0.dtd"
   xmlns="http://www.w3.org/2000/svg"
   xmlns:svg="http://www.w3.org/2000/svg">
  <defs
     id="defs3" />
  <sodipodi:namedview
     id="namedview3"
     pagecolor="#ffffff"
     bordercolor="#000000"
     borderopacity="0.25"
     inkscape:showpageshadow="2"
     inkscape:pageopacity="0.0"
     inkscape:pagecheckerboard="0"
     inkscape:deskcolor="#d1d1d1"
     inkscape:document-units="mm" />
  <path
     d="m 9.5114257,13.77334 h 7.0984373 v 1.27832 h -5.579492 v 3.323633 h 5.346387 v 1.27832 h -5.346387 v 4.068067 h 5.714844 V 25 H 9.5114257 Z M 26.182226,19.916797 V 25 h -1.383594 v -5.038086 q 0,-1.195605 -0.46621,-1.789648 -0.466211,-0.594043 -1.398633,-0.594043 -1.12041,0 -1.76709,0.714355 -0.64668,0.714356 -0.64668,1.947559 V 25 h -1.391113 v -8.421875 h 1.391113 v 1.308399 q 0.496289,-0.759473 1.165528,-1.13545 0.676757,-0.375976 1.556543,-0.375976 1.451269,0 2.195703,0.902344 0.744433,0.894824 0.744433,2.639355 z m 8.301561,-2.060352 V 13.29961 h 1.383594 V 25 h -1.383594 v -1.263281 q -0.436132,0.751953 -1.105371,1.12041 -0.661718,0.360937 -1.59414,0.360937 -1.526465,0 -2.488965,-1.218164 -0.954981,-1.218164 -0.954981,-3.20332 0,-1.985156 0.954981,-3.20332 0.9625,-1.218164 2.488965,-1.218164 0.932422,0 1.59414,0.368457 0.669239,0.360937 1.105371,1.11289 z m -4.714746,2.940137 q 0,1.526465 0.624121,2.398731 0.631641,0.864746 1.729493,0.864746 1.097851,0 1.729492,-0.864746 0.63164,-0.872266 0.63164,-2.398731 0,-1.526465 -0.63164,-2.391211 -0.631641,-0.872265 -1.729492,-0.872265 -1.097852,0 -1.729493,0.872265 -0.624121,0.864746 -0.624121,2.391211 z"
     id="text1"
     style="font-size:15.4px;font-family:'DejaVu Sans'"
     aria-label="End" />
  <path
     d="m 84.523437,22.271484 h 2.180665 V 25 h -2.180665 z m 2.116211,-1.579101 h -2.051757 v -1.654297 q 0,-1.084961 0.300781,-1.783203 0.300781,-0.698242 1.267578,-1.62207 l 0.966797,-0.956055 q 0.612305,-0.569336 0.880859,-1.074219 0.279297,-0.504883 0.279297,-1.03125 0,-0.956055 -0.708984,-1.546875 -0.698242,-0.59082 -1.858399,-0.59082 -0.848633,0 -1.815429,0.375976 -0.956055,0.375977 -1.998047,1.095703 V 9.8857422 q 1.009765,-0.6123047 2.041015,-0.9130859 1.041993,-0.3007813 2.148438,-0.3007813 1.976562,0 3.168945,1.0419922 1.203125,1.0419918 1.203125,2.7499998 0,0.816406 -0.386719,1.557617 -0.386718,0.730469 -1.353515,1.654297 l -0.945313,0.923828 q -0.504883,0.504883 -0.719726,0.794922 -0.204102,0.279297 -0.290039,0.547852 -0.06445,0.225586 -0.09668,0.547851 -0.03223,0.322266 -0.03223,0.88086 z"
     id="text2"
     style="font-size:22px;font-family:'DejaVu Sans';text-anchor:end"
     aria-label="?" />
  <path
     d="m 8.5113281,83.77334 h 1.5339839 l 2.361133,9.489648 2.353613,-9.489648 h 1.706934 l 2.361133,9.489648 2.353613,-9.489648 h 1.541504 L 19.903418,95 H 17.993457 L 15.624804,85.254688 13.233594,95 h -1.909961 z m 21.7991209,1.571582 v 4.188379 h 4.188379 v 1.27832 H 30.310449 V 95 h -1.263281 v -4.188379 h -4.188379 v -1.27832 h 4.188379 v -4.188379 z m 5.790039,-1.571582 h 1.631738 l 3.113086,4.616992 3.090527,-4.616992 h 1.631738 l -3.970312,5.880273 V 95 H 40.0708 v -5.346387 z"
     id="text3"
     style="font-size:15.4px;font-family:'DejaVu Sans'"
     aria-label="W+Y" />
</svg>
