<?xml version="1.0" encoding="UTF-8" standalone="no"?>
<svg
   width="13mm"
   height="13mm"
   viewBox="0 0 100 100"
   version="1.1"
   id="svg3"
   sodipodi:docname="R20.svg"
   xmlns:inkscape="http://www.inkscape.org/namespaces/inkscape"
   xmlns:sodipodi="http://sodipodi.sourceforge.net/DTD/sodipodi-0.dtd"
   xmlns="http://www.w3.org/2000/svg"
   xmlns:svg="http://www.w3.org/2000/svg">
  <defs
     id="defs3" />
  <sodipodi:namedview
     id="namedview3"
     pagecolor="#ffffff"
     bordercolor="#000000"
     borderopacity="0.25"
     inkscape:showpageshadow="2"
     inkscape:pageopacity="0.0"
     inkscape:pagecheckerboard="0"
     inkscape:deskcolor="#d1d1d1"
     inkscape:document-units="mm" />
  <path
     d="m 30.381104,47.606934 h 1.676757 v 10.981933 h 6.034668 V 60 h -7.711425 z m 5.412109,0 H 46.2771 v 1.411132 H 41.877686 V 60 H 40.192627 V 49.018066 h -4.399414 z m 13.696289,10.981933 h 5.852051 V 60 h -7.869141 v -1.411133 q 0.95459,-0.987793 2.598145,-2.647949 1.651855,-1.668457 2.075195,-2.149902 0.805176,-0.904786 1.120605,-1.527344 0.323731,-0.63086 0.323731,-1.236817 0,-0.987793 -0.697266,-1.610351 -0.688965,-0.622559 -1.801269,-0.622559 -0.788574,0 -1.668457,0.273926 -0.871582,0.273926 -1.867676,0.830078 V 48.20459 q 1.012695,-0.406738 1.892578,-0.614258 0.879883,-0.20752 1.610352,-0.20752 1.925781,0 3.071289,0.962891 1.145507,0.962891 1.145507,2.573242 0,0.763672 -0.290527,1.452637 -0.282226,0.680664 -1.037598,1.610352 -0.207519,0.240722 -1.319824,1.394531 -1.112304,1.145508 -3.137695,3.212402 z m 18.70166,-3.212402 H 60.19751 l 1.934082,1.934082 -0.996094,0.996094 -3.262207,-3.262207 v -0.747071 l 3.262207,-3.262207 0.996094,0.996094 -1.934082,1.934082 h 6.582519 v -4.615234 h 1.411133 z"
     id="text1"
     style="font-size:17px;font-family:'DejaVu Sans';text-anchor:middle"
     aria-label="LT2↵" />
  <path
     d="m 9.5114257,13.77334 h 2.2633793 l 2.864941,7.639844 2.87998,-7.639844 h 2.263379 V 25 h -1.481347 v -9.858105 l -2.89502,7.7 h -1.526465 l -2.895019,-7.7 V 25 H 9.5114257 Z m 17.8438473,1.030176 q -1.654297,0 -2.631836,1.233203 -0.97002,1.233203 -0.97002,3.36123 0,2.120508 0.97002,3.353711 0.977539,1.233203 2.631836,1.233203 1.654297,0 2.616797,-1.233203 0.970019,-1.233203 0.970019,-3.353711 0,-2.128027 -0.970019,-3.36123 -0.9625,-1.233203 -2.616797,-1.233203 z m 0,-1.233203 q 2.361132,0 3.774804,1.586621 1.413672,1.579101 1.413672,4.241015 0,2.654395 -1.413672,4.241016 -1.413672,1.579101 -3.774804,1.579101 -2.368653,0 -3.789844,-1.579101 -1.413672,-1.579102 -1.413672,-4.241016 0,-2.661914 1.413672,-4.241015 1.421191,-1.586621 3.789844,-1.586621 z m 12.301952,5.376464 q 1.090332,0.233106 1.699414,0.97002 0.616602,0.736914 0.616602,1.819727 0,1.661816 -1.142969,2.571679 -1.142969,0.909863 -3.248437,0.909863 -0.706836,0 -1.458789,-0.142871 -0.744434,-0.135351 -1.541504,-0.413574 v -1.466308 q 0.63164,0.368457 1.383594,0.556445 0.751953,0.187988 1.571582,0.187988 1.42871,0 2.173144,-0.563965 0.751953,-0.563965 0.751953,-1.639257 0,-0.992579 -0.699316,-1.549024 -0.691797,-0.563965 -1.93252,-0.563965 h -1.308398 v -1.248242 h 1.368554 q 1.120411,0 1.714454,-0.443652 0.594042,-0.451172 0.594042,-1.29336 0,-0.864746 -0.616601,-1.323437 -0.609082,-0.466211 -1.752051,-0.466211 -0.624121,0 -1.338476,0.135352 -0.714356,0.135351 -1.571582,0.421093 v -1.353515 q 0.864746,-0.240625 1.616699,-0.360938 0.759473,-0.120312 1.428711,-0.120312 1.729492,0 2.737109,0.789551 1.007617,0.782031 1.007617,2.120507 0,0.932422 -0.533886,1.579102 -0.533887,0.63916 -1.518946,0.887304 z"
     id="text2"
     style="font-size:15.4px;font-family:'DejaVu Sans'"
     aria-label="MO3" />
  <path
     d="m 8.5113281,83.77334 h 1.5339839 l 2.361133,9.489648 2.353613,-9.489648 h 1.706934 l 2.361133,9.489648 2.353613,-9.489648 h 1.541504 L 19.903418,95 H 17.993457 L 15.624804,85.254688 13.233594,95 h -1.909961 z m 21.7991209,1.571582 v 4.188379 h 4.188379 v 1.27832 H 30.310449 V 95 h -1.263281 v -4.188379 h -4.188379 v -1.27832 h 4.188379 v -4.188379 z m 5.790039,-1.571582 h 1.631738 l 3.113086,4.616992 3.090527,-4.616992 h 1.631738 l -3.970312,5.880273 V 95 H 40.0708 v -5.346387 z"
     id="text3"
     style="font-size:15.4px;font-family:'DejaVu Sans'"
     aria-label="W+Y" />
</svg>
