<?xml version="1.0" encoding="UTF-8" standalone="no"?>
<svg
   width="13mm"
   height="13mm"
   viewBox="0 0 100 100"
   version="1.1"
   id="svg4"
   sodipodi:docname="R21.svg"
   xmlns:inkscape="http://www.inkscape.org/namespaces/inkscape"
   xmlns:sodipodi="http://sodipodi.sourceforge.net/DTD/sodipodi-0.dtd"
   xmlns="http://www.w3.org/2000/svg"
   xmlns:svg="http://www.w3.org/2000/svg">
  <defs
     id="defs4" />
  <sodipodi:namedview
     id="namedview4"
     pagecolor="#ffffff"
     bordercolor="#000000"
     borderopacity="0.25"
     inkscape:showpageshadow="2"
     inkscape:pageopacity="0.0"
     inkscape:pagecheckerboard="0"
     inkscape:deskcolor="#d1d1d1"
     inkscape:document-units="mm" />
  <path
     d="m 32.107666,47.606934 h 1.676758 v 10.981933 h 6.034668 V 60 h -7.711426 z m 5.412109,0 h 10.483887 v 1.411132 H 43.604248 V 60 H 41.919189 V 49.018066 h -4.399414 z m 16.858887,1.460937 -4.233398,6.615723 h 4.233398 z m -0.439941,-1.460937 h 2.108398 v 8.07666 h 1.768067 v 1.394531 H 56.047119 V 60 h -1.668457 v -2.921875 h -5.594726 v -1.618652 z m 7.4375,14.850097 h 5.578125 v -4.183594 h 1.394531 v 5.594727 h -8.367188 v -5.594727 h 1.394532 z"
     id="text1"
     style="font-size:17px;font-family:'DejaVu Sans';text-anchor:middle"
     aria-label="LT4␣" />
  <path
     d="m 9.5114257,13.77334 h 7.0984373 v 1.27832 h -5.579492 v 3.323633 h 5.346387 v 1.27832 h -5.346387 v 4.068067 h 5.714844 V 25 H 9.5114257 Z M 26.182226,19.916797 V 25 h -1.383594 v -5.038086 q 0,-1.195605 -0.46621,-1.789648 -0.466211,-0.594043 -1.398633,-0.594043 -1.12041,0 -1.76709,0.714355 -0.64668,0.714356 -0.64668,1.947559 V 25 h -1.391113 v -8.421875 h 1.391113 v 1.308399 q 0.496289,-0.759473 1.165528,-1.13545 0.676757,-0.375976 1.556543,-0.375976 1.451269,0 2.195703,0.902344 0.744433,0.894824 0.744433,2.639355 z m 4.128222,-5.729883 v 2.391211 h 2.849902 v 1.075293 h -2.849902 v 4.571875 q 0,1.030176 0.278222,1.323438 0.285742,0.293261 1.150489,0.293261 H 33.16035 V 25 h -1.421191 q -1.601661,0 -2.210743,-0.594043 -0.609082,-0.601562 -0.609082,-2.180664 v -4.571875 h -1.015136 v -1.075293 h 1.015136 v -2.391211 z"
     id="text2"
     style="font-size:15.4px;font-family:'DejaVu Sans'"
     aria-label="Ent" />
  <path
     d="m 67.982618,13.77334 h 7.098437 v 1.27832 h -5.579492 v 3.323633 h 5.346387 v 1.27832 h -5.346387 v 4.068067 h 5.714844 V 25 h -7.233789 z m 16.6708,6.143457 V 25 h -1.383594 v -5.038086 q 0,-1.195605 -0.46621,-1.789648 -0.466211,-0.594043 -1.398633,-0.594043 -1.12041,0 -1.76709,0.714355 -0.64668,0.714356 -0.64668,1.947559 V 25 h -1.391113 v -8.421875 h 1.391113 v 1.308399 q 0.496289,-0.759473 1.165528,-1.13545 0.676757,-0.375976 1.556543,-0.375976 1.451269,0 2.195703,0.902344 0.744433,0.894824 0.744433,2.639355 z m 4.128222,-5.729883 v 2.391211 h 2.849902 v 1.075293 H 88.78164 v 4.571875 q 0,1.030176 0.278222,1.323438 0.285742,0.293261 1.150489,0.293261 h 1.421191 V 25 H 90.210351 Q 88.60869,25 87.999608,24.405957 87.390526,23.804395 87.390526,22.225293 V 17.653418 H 86.37539 v -1.075293 h 1.015136 v -2.391211 z"
     id="text3"
     style="font-size:15.4px;font-family:'DejaVu Sans';text-anchor:end"
     aria-label="Ent" />
  <path
     d="m 67.982618,83.77334 h 7.098437 v 1.27832 h -5.579492 v 3.323633 h 5.346387 v 1.27832 h -5.346387 v 4.068067 h 5.714844 V 95 h -7.233789 z m 16.6708,6.143457 V 95 h -1.383594 v -5.038086 q 0,-1.195605 -0.46621,-1.789648 -0.466211,-0.594043 -1.398633,-0.594043 -1.12041,0 -1.76709,0.714355 -0.64668,0.714356 -0.64668,1.947559 V 95 h -1.391113 v -8.421875 h 1.391113 v 1.308399 q 0.496289,-0.759473 1.165528,-1.13545 0.676757,-0.375976 1.556543,-0.375976 1.451269,0 2.195703,0.902344 0.744433,0.894824 0.744433,2.639355 z m 4.128222,-5.729883 v 2.391211 h 2.849902 v 1.075293 H 88.78164 v 4.571875 q 0,1.030176 0.278222,1.323438 0.285742,0.293261 1.150489,0.293261 h 1.421191 V 95 H 90.210351 Q 88.60869,95 87.999608,94.405957 87.390526,93.804395 87.390526,92.225293 V 87.653418 H 86.37539 v -1.075293 h 1.015136 v -2.391211 z"
     id="text4"
     style="font-size:15.4px;font-family:'DejaVu Sans';text-anchor:end"
     aria-label="Ent" />
</svg>
