<?xml version="1.0" encoding="UTF-8" standalone="no"?>
<svg
   width="13mm"
   height="13mm"
   viewBox="0 0 100 100"
   version="1.1"
   id="svg3"
   sodipodi:docname="R3.svg"
   xmlns:inkscape="http://www.inkscape.org/namespaces/inkscape"
   xmlns:sodipodi="http://sodipodi.sourceforge.net/DTD/sodipodi-0.dtd"
   xmlns="http://www.w3.org/2000/svg"
   xmlns:svg="http://www.w3.org/2000/svg">
  <defs
     id="defs3" />
  <sodipodi:namedview
     id="namedview3"
     pagecolor="#ffffff"
     bordercolor="#000000"
     borderopacity="0.25"
     inkscape:showpageshadow="2"
     inkscape:pageopacity="0.0"
     inkscape:pagecheckerboard="0"
     inkscape:deskcolor="#d1d1d1"
     inkscape:document-units="mm" />
  <path
     d="m 9.2169922,15.960352 h 1.2230468 v 3.705468 h 4.44414 v -3.705468 h 1.223047 V 25 h -1.223047 v -4.304883 h -4.44414 V 25 H 9.2169922 Z m 11.9035158,3.039453 q -0.896094,0 -1.416797,0.702344 -0.520703,0.696289 -0.520703,1.913281 0,1.216992 0.514648,1.919336 0.520703,0.696289 1.422852,0.696289 0.890039,0 1.410742,-0.702344 0.520703,-0.702344 0.520703,-1.913281 0,-1.204883 -0.520703,-1.907227 -0.520703,-0.708398 -1.410742,-0.708398 z m 0,-0.944531 q 1.453125,0 2.282617,0.944531 0.829492,0.944531 0.829492,2.615625 0,1.665039 -0.829492,2.615625 -0.829492,0.944531 -2.282617,0.944531 -1.45918,0 -2.288672,-0.944531 -0.823438,-0.950586 -0.823438,-2.615625 0,-1.671094 0.823438,-2.615625 0.829492,-0.944531 2.288672,-0.944531 z m 10.238476,1.465234 q 0.417773,-0.750781 0.999023,-1.108008 0.58125,-0.357226 1.36836,-0.357226 1.05957,0 1.634765,0.744726 0.575195,0.738672 0.575195,2.107031 V 25 H 34.81621 v -4.056641 q 0,-0.974804 -0.345117,-1.44707 -0.345117,-0.472265 -1.053516,-0.472265 -0.86582,0 -1.368359,0.575195 -0.502539,0.575195 -0.502539,1.568164 V 25 h -1.120117 v -4.056641 q 0,-0.980859 -0.345117,-1.44707 -0.345117,-0.472265 -1.065625,-0.472265 -0.853711,0 -1.35625,0.58125 -0.502539,0.575195 -0.502539,1.562109 V 25 h -1.120117 v -6.78125 h 1.120117 v 1.053516 q 0.381445,-0.623633 0.914258,-0.920313 0.532812,-0.296679 1.265429,-0.296679 0.738672,0 1.253321,0.37539 0.520703,0.375391 0.768945,1.089844 z m 12.599804,1.810351 v 0.544922 h -5.122265 q 0.07266,1.150391 0.690234,1.75586 0.623633,0.599414 1.731641,0.599414 0.641797,0 1.241211,-0.157422 0.605469,-0.157422 1.198828,-0.472266 v 1.053516 q -0.599414,0.254297 -1.229102,0.3875 -0.629687,0.133203 -1.277539,0.133203 -1.622656,0 -2.573242,-0.944531 -0.944531,-0.944532 -0.944531,-2.555078 0,-1.665039 0.896094,-2.639844 0.902148,-0.980859 2.427929,-0.980859 1.36836,0 2.161524,0.883984 0.799218,0.87793 0.799218,2.391601 z m -1.114062,-0.326953 q -0.01211,-0.914257 -0.514648,-1.459179 -0.496485,-0.544922 -1.319922,-0.544922 -0.932422,0 -1.495508,0.526758 -0.557031,0.526757 -0.641797,1.483398 z"
     id="text1"
     style="font-size:12.4px;font-family:'DejaVu Sans'"
     aria-label="Home" />
  <path
     d="m 75.897461,15.009766 h 13.771484 v 1.804687 H 75.897461 Z m 0,4.382812 H 89.668945 V 21.21875 H 75.897461 Z"
     id="text2"
     style="font-size:22px;font-family:'DejaVu Sans';text-anchor:end"
     aria-label="=" />
  <path
     d="m 8.3486328,87.345459 h 1.0458985 l 1.6098637,6.470215 1.604736,-6.470215 h 1.163818 l 1.609864,6.470215 1.604736,-6.470215 h 1.051025 L 16.115967,95 H 14.813721 L 13.19873,88.355469 11.568359,95 H 10.266113 Z M 23.21167,88.416992 v 2.855713 h 2.855713 v 0.871582 H 23.21167 V 95 h -0.861328 v -2.855713 h -2.855713 v -0.871582 h 2.855713 v -2.855713 z m 4.998779,-1.071533 h 4.398926 v 0.871582 H 29.246094 V 90.4729 h 3.035156 v 0.871582 H 29.246094 V 95 h -1.035645 z m 6.31128,6.782959 h 1.691894 v -5.8396 l -1.840576,0.369141 V 87.7146 l 1.830322,-0.369141 h 1.035645 v 6.782959 h 1.691894 V 95 h -4.409179 z m 6.680419,0 h 1.691895 v -5.8396 l -1.840576,0.369141 V 87.7146 l 1.830322,-0.369141 h 1.035645 v 6.782959 h 1.691894 V 95 h -4.40918 z"
     id="text3"
     style="font-size:10.5px;font-family:'DejaVu Sans'"
     aria-label="W+F11" />
</svg>
