<?xml version="1.0" encoding="UTF-8" standalone="no"?>
<svg
   width="13mm"
   height="13mm"
   viewBox="0 0 100 100"
   version="1.1"
   id="svg3"
   sodipodi:docname="R4.svg"
   xmlns:inkscape="http://www.inkscape.org/namespaces/inkscape"
   xmlns:sodipodi="http://sodipodi.sourceforge.net/DTD/sodipodi-0.dtd"
   xmlns="http://www.w3.org/2000/svg"
   xmlns:svg="http://www.w3.org/2000/svg">
  <defs
     id="defs3" />
  <sodipodi:namedview
     id="namedview3"
     pagecolor="#ffffff"
     bordercolor="#000000"
     borderopacity="0.25"
     inkscape:showpageshadow="2"
     inkscape:pageopacity="0.0"
     inkscape:pagecheckerboard="0"
     inkscape:deskcolor="#d1d1d1"
     inkscape:document-units="mm" />
  <path
     d="m 16.733398,8.8867188 h 0.966797 l 4.210938,4.2324222 -1.289063,1.289062 -2.492187,-2.513672 V 25 H 16.303711 V 11.894531 l -2.513672,2.513672 -1.289062,-1.289062 z"
     id="text1"
     style="font-size:22px;font-family:'DejaVu Sans'"
     aria-label="↑" />
  <path
     d="m 85.178711,8.3066406 h 1.71875 q 1.611328,2.5351564 2.40625,4.9628904 0.805664,2.427735 0.805664,4.823242 0,2.40625 -0.805664,4.844727 -0.794922,2.438477 -2.40625,4.962891 h -1.71875 q 1.428711,-2.459961 2.126953,-4.887696 0.708984,-2.438476 0.708984,-4.919922 0,-2.481445 -0.708984,-4.898437 -0.698242,-2.416992 -2.126953,-4.8876954 z"
     id="text2"
     style="font-size:22px;font-family:'DejaVu Sans';text-anchor:end"
     aria-label=")" />
  <path
     d="m 8.5113281,83.77334 h 1.5339839 l 2.361133,9.489648 2.353613,-9.489648 h 1.706934 l 2.361133,9.489648 2.353613,-9.489648 h 1.541504 L 19.903418,95 H 17.993457 L 15.624804,85.254688 13.233594,95 h -1.909961 z m 21.7991209,1.571582 v 4.188379 h 4.188379 v 1.27832 H 30.310449 V 95 h -1.263281 v -4.188379 h -4.188379 v -1.27832 h 4.188379 v -4.188379 z m 11.933495,-1.624219 h 0.676758 l 2.947656,2.962696 -0.902343,0.902343 -1.744532,-1.75957 V 95 h -1.27832 v -9.173828 l -1.75957,1.75957 -0.902344,-0.902343 z"
     id="text3"
     style="font-size:15.4px;font-family:'DejaVu Sans'"
     aria-label="W+↑" />
</svg>
