<?xml version="1.0" encoding="UTF-8" standalone="no"?>
<svg
   width="13mm"
   height="13mm"
   viewBox="0 0 100 100"
   version="1.1"
   id="svg3"
   sodipodi:docname="R5.svg"
   xmlns:inkscape="http://www.inkscape.org/namespaces/inkscape"
   xmlns:sodipodi="http://sodipodi.sourceforge.net/DTD/sodipodi-0.dtd"
   xmlns="http://www.w3.org/2000/svg"
   xmlns:svg="http://www.w3.org/2000/svg">
  <defs
     id="defs3" />
  <sodipodi:namedview
     id="namedview3"
     pagecolor="#ffffff"
     bordercolor="#000000"
     borderopacity="0.25"
     inkscape:showpageshadow="2"
     inkscape:pageopacity="0.0"
     inkscape:pagecheckerboard="0"
     inkscape:deskcolor="#d1d1d1"
     inkscape:document-units="mm" />
  <path
     d="m 10.440039,16.96543 v 3.39668 h 1.537891 q 0.85371,0 1.319921,-0.441993 0.466211,-0.441992 0.466211,-1.259375 0,-0.811328 -0.466211,-1.25332 Q 12.83164,16.96543 11.97793,16.96543 Z M 9.2169922,15.960352 H 11.97793 q 1.519726,0 2.294726,0.690234 0.781055,0.68418 0.781055,2.010156 0,1.338086 -0.781055,2.022266 -0.775,0.68418 -2.294726,0.68418 H 10.440039 V 25 H 9.2169922 Z m 11.8914058,5.570312 q 0,-1.210937 -0.502539,-1.876953 -0.496484,-0.666016 -1.398633,-0.666016 -0.896093,0 -1.398632,0.666016 -0.496485,0.666016 -0.496485,1.876953 0,1.204883 0.496485,1.870899 0.502539,0.666015 1.398632,0.666015 0.902149,0 1.398633,-0.666015 0.502539,-0.666016 0.502539,-1.870899 z m 1.114063,2.627734 q 0,1.731641 -0.768946,2.573243 -0.768945,0.847656 -2.355273,0.847656 -0.587305,0 -1.108008,-0.09082 -0.520703,-0.08476 -1.011132,-0.266406 v -1.083789 q 0.490429,0.266406 0.968749,0.393555 0.478321,0.127148 0.974805,0.127148 1.095899,0 1.64082,-0.575195 0.544922,-0.569141 0.544922,-1.725586 V 23.807227 Q 20.763281,24.406641 20.224414,24.70332 19.685547,25 18.934766,25 17.6875,25 16.924609,24.049414 q -0.76289,-0.950586 -0.76289,-2.51875 0,-1.574219 0.76289,-2.524804 0.762891,-0.950586 2.010157,-0.950586 0.750781,0 1.289648,0.296679 0.538867,0.29668 0.883984,0.896094 V 18.21875 h 1.114063 z m 3.566211,-7.192968 v 7.029492 h 1.477344 q 1.870898,0 2.736718,-0.847656 0.871875,-0.847657 0.871875,-2.676172 0,-1.816406 -0.871875,-2.658008 -0.86582,-0.847656 -2.736718,-0.847656 z m -1.223047,-1.005078 h 2.512695 q 2.627734,0 3.856836,1.095898 1.229102,1.089844 1.229102,3.414844 0,2.337109 -1.235157,3.433008 Q 29.693945,25 27.07832,25 h -2.512695 z m 15.136717,4.946679 V 25 H 38.58828 v -4.056641 q 0,-0.962695 -0.375391,-1.441015 -0.375391,-0.47832 -1.126172,-0.47832 -0.902148,0 -1.422851,0.575195 -0.520704,0.575195 -0.520704,1.568164 V 25 h -1.120117 v -6.78125 h 1.120117 v 1.053516 q 0.39961,-0.611524 0.938477,-0.914258 0.544922,-0.302734 1.25332,-0.302734 1.168555,0 1.767969,0.726562 0.599414,0.720508 0.599414,2.125195 z"
     id="text1"
     style="font-size:12.4px;font-family:'DejaVu Sans'"
     aria-label="PgDn" />
  <path
     d="m 90.238281,8.3066406 q -1.439453,2.4707034 -2.137695,4.8876954 -0.698242,2.416992 -0.698242,4.898437 0,2.481446 0.698242,4.919922 0.708984,2.427735 2.137695,4.887696 h -1.71875 q -1.611328,-2.524414 -2.416992,-4.962891 -0.794922,-2.438477 -0.794922,-4.844727 0,-2.395507 0.794922,-4.823242 0.794922,-2.427734 2.416992,-4.9628904 z"
     id="text2"
     style="font-size:22px;font-family:'DejaVu Sans';text-anchor:end"
     aria-label="(" />
  <path
     d="m 8.5113281,83.77334 h 1.5339839 l 2.361133,9.489648 2.353613,-9.489648 h 1.706934 l 2.361133,9.489648 2.353613,-9.489648 h 1.541504 L 19.903418,95 H 17.993457 L 15.624804,85.254688 13.233594,95 h -1.909961 z m 21.7991209,1.571582 v 4.188379 h 4.188379 v 1.27832 H 30.310449 V 95 h -1.263281 v -4.188379 h -4.188379 v -1.27832 h 4.188379 v -4.188379 z m 14.061523,-1.203125 v 1.481348 q -0.864746,-0.413574 -1.631739,-0.616602 -0.766992,-0.203027 -1.481347,-0.203027 -1.240723,0 -1.917481,0.48125 -0.669238,0.48125 -0.669238,1.368555 0,0.744433 0.443652,1.127929 0.451172,0.375977 1.699414,0.609082 l 0.917383,0.187988 q 1.699414,0.32334 2.504004,1.142969 0.812109,0.81211 0.812109,2.180664 0,1.631738 -1.097851,2.473926 -1.090332,0.842187 -3.20332,0.842187 -0.797071,0 -1.699414,-0.180468 -0.894825,-0.180469 -1.857324,-0.533887 v -1.564063 q 0.924902,0.518848 1.812207,0.782032 0.887304,0.263183 1.744531,0.263183 1.300879,0 2.007715,-0.511328 0.706835,-0.511328 0.706835,-1.458789 0,-0.827148 -0.511328,-1.293359 -0.503808,-0.466211 -1.661816,-0.699317 l -0.924902,-0.180468 q -1.699414,-0.338379 -2.458887,-1.060254 -0.759473,-0.721875 -0.759473,-2.007715 0,-1.488867 1.045215,-2.346094 1.052735,-0.857226 2.89502,-0.857226 0.78955,0 1.609179,0.142871 0.819629,0.142871 1.676856,0.428613 z"
     id="text3"
     style="font-size:15.4px;font-family:'DejaVu Sans'"
     aria-label="W+S" />
</svg>
