<?xml version="1.0" encoding="UTF-8" standalone="no"?>
<svg
   width="13mm"
   height="13mm"
   viewBox="0 0 100 100"
   version="1.1"
   id="svg3"
   sodipodi:docname="R6.svg"
   xmlns:inkscape="http://www.inkscape.org/namespaces/inkscape"
   xmlns:sodipodi="http://sodipodi.sourceforge.net/DTD/sodipodi-0.dtd"
   xmlns="http://www.w3.org/2000/svg"
   xmlns:svg="http://www.w3.org/2000/svg">
  <defs
     id="defs3" />
  <sodipodi:namedview
     id="namedview3"
     pagecolor="#ffffff"
     bordercolor="#000000"
     borderopacity="0.25"
     inkscape:showpageshadow="2"
     inkscape:pageopacity="0.0"
     inkscape:pagecheckerboard="0"
     inkscape:deskcolor="#d1d1d1"
     inkscape:document-units="mm" />
  <path
     d="m 10.440039,16.96543 v 3.39668 h 1.537891 q 0.85371,0 1.319921,-0.441993 0.466211,-0.441992 0.466211,-1.259375 0,-0.811328 -0.466211,-1.25332 Q 12.83164,16.96543 11.97793,16.96543 Z M 9.2169922,15.960352 H 11.97793 q 1.519726,0 2.294726,0.690234 0.781055,0.68418 0.781055,2.010156 0,1.338086 -0.781055,2.022266 -0.775,0.68418 -2.294726,0.68418 H 10.440039 V 25 H 9.2169922 Z m 11.8914058,5.570312 q 0,-1.210937 -0.502539,-1.876953 -0.496484,-0.666016 -1.398633,-0.666016 -0.896093,0 -1.398632,0.666016 -0.496485,0.666016 -0.496485,1.876953 0,1.204883 0.496485,1.870899 0.502539,0.666015 1.398632,0.666015 0.902149,0 1.398633,-0.666015 0.502539,-0.666016 0.502539,-1.870899 z m 1.114063,2.627734 q 0,1.731641 -0.768946,2.573243 -0.768945,0.847656 -2.355273,0.847656 -0.587305,0 -1.108008,-0.09082 -0.520703,-0.08476 -1.011132,-0.266406 v -1.083789 q 0.490429,0.266406 0.968749,0.393555 0.478321,0.127148 0.974805,0.127148 1.095899,0 1.64082,-0.575195 0.544922,-0.569141 0.544922,-1.725586 V 23.807227 Q 20.763281,24.406641 20.224414,24.70332 19.685547,25 18.934766,25 17.6875,25 16.924609,24.049414 q -0.76289,-0.950586 -0.76289,-2.51875 0,-1.574219 0.76289,-2.524804 0.762891,-0.950586 2.010157,-0.950586 0.750781,0 1.289648,0.296679 0.538867,0.29668 0.883984,0.896094 V 18.21875 h 1.114063 z m 2.203906,-8.198046 h 1.229102 v 5.491601 q 0,1.453125 0.526757,2.094922 0.526758,0.635742 1.707422,0.635742 1.17461,0 1.701367,-0.635742 0.526758,-0.641797 0.526758,-2.094922 v -5.491601 h 1.229102 v 5.642968 q 0,1.767969 -0.87793,2.670118 -0.871875,0.902148 -2.579297,0.902148 -1.713476,0 -2.591406,-0.902148 -0.871875,-0.902149 -0.871875,-2.670118 z m 10.24453,8.022461 v 3.596484 H 33.55078 V 18.21875 h 1.120117 v 1.029297 q 0.351172,-0.605469 0.883985,-0.896094 0.538867,-0.296679 1.283593,-0.296679 1.235156,0 2.004102,0.980859 0.775,0.980859 0.775,2.579297 0,1.598437 -0.775,2.579297 -0.768946,0.980859 -2.004102,0.980859 -0.744726,0 -1.283593,-0.290625 -0.532813,-0.29668 -0.883985,-0.902148 z m 3.790234,-2.367383 q 0,-1.229102 -0.508593,-1.925391 -0.502539,-0.702344 -1.386524,-0.702344 -0.883984,0 -1.392578,0.702344 -0.502539,0.696289 -0.502539,1.925391 0,1.229101 0.502539,1.931445 0.508594,0.696289 1.392578,0.696289 0.883985,0 1.386524,-0.696289 0.508593,-0.702344 0.508593,-1.931445 z"
     id="text1"
     style="font-size:12.4px;font-family:'DejaVu Sans'"
     aria-label="PgUp" />
  <path
     d="M 90.173828,8.9619141 H 92 L 86.414062,27.041016 h -1.826171 z"
     id="text2"
     style="font-size:22px;font-family:'DejaVu Sans';text-anchor:end"
     aria-label="/" />
  <path
     d="m 8.5113281,83.77334 h 1.5339839 l 2.361133,9.489648 2.353613,-9.489648 h 1.706934 l 2.361133,9.489648 2.353613,-9.489648 h 1.541504 L 19.903418,95 H 17.993457 L 15.624804,85.254688 13.233594,95 h -1.909961 z m 21.7991209,1.571582 v 4.188379 h 4.188379 v 1.27832 H 30.310449 V 95 h -1.263281 v -4.188379 h -4.188379 v -1.27832 h 4.188379 v -4.188379 z m 5.774999,-1.571582 h 9.497168 v 1.27832 H 41.597265 V 95 H 40.0708 v -9.94834 h -3.985352 z"
     id="text3"
     style="font-size:15.4px;font-family:'DejaVu Sans'"
     aria-label="W+T" />
</svg>
